if (_typeface_js && _typeface_js.loadFace) _typeface_js.loadFace({"glyphs":{"S":{"x_min":92.703125,"x_max":1023.453125,"ha":935,"o":"m 114 331 l 103 283 b 471 -8 42 -15 245 -8 b 935 309 734 -8 875 16 b 598 611 991 575 909 591 b 404 755 401 623 376 627 b 657 886 427 866 462 886 b 815 769 795 886 839 881 l 808 736 l 1005 736 l 1012 769 b 691 1050 1069 1043 900 1050 b 208 755 446 1050 266 1041 b 537 447 144 452 321 461 b 739 309 688 438 770 458 b 505 155 714 188 683 155 b 299 283 323 155 274 163 l 310 331 l 114 331 "},"¦":{"x_min":385.1875,"x_max":510.421875,"ha":690,"o":"m 385 1080 l 385 520 l 510 520 l 510 1080 l 385 1080 m 385 279 l 385 -279 l 510 -279 l 510 279 l 385 279 "},"/":{"x_min":-39,"x_max":1152,"ha":947,"o":"m 1152 1041 l 998 1041 l -39 -156 l 113 -156 l 1152 1041 "},"y":{"x_min":69,"x_max":819,"ha":674,"o":"m 819 729 l 644 729 l 376 108 l 373 108 l 322 729 l 145 729 l 228 0 l 311 0 b 132 -190 278 -84 240 -190 b 97 -186 120 -190 108 -187 l 69 -318 b 141 -323 93 -319 116 -323 b 475 -29 341 -323 401 -194 l 819 729 "},"≈":{"x_min":207,"x_max":992.359375,"ha":1083,"o":"m 932 667 b 773 551 883 590 838 551 b 620 607 714 551 682 574 b 442 670 574 633 520 670 b 207 517 347 670 257 606 l 268 457 b 434 571 313 517 359 571 b 582 519 490 571 536 546 b 774 452 658 478 703 452 b 992 606 867 452 937 514 l 932 667 m 932 378 b 773 265 882 303 839 265 b 620 321 710 265 672 294 b 442 383 574 346 521 383 b 207 230 347 383 257 319 l 268 169 b 434 285 313 230 358 285 b 582 233 488 285 533 260 b 773 168 657 192 703 168 b 992 317 868 168 939 229 l 932 378 "},"Ž":{"x_min":34,"x_max":1058,"ha":900,"o":"m 1058 1041 l 275 1041 l 239 870 l 776 870 l 774 865 l 69 169 l 34 0 l 848 0 l 883 170 l 311 170 l 313 175 l 1022 870 l 1058 1041 m 675 1123 l 949 1273 l 930 1343 l 702 1255 l 511 1343 l 464 1273 l 675 1123 "},"Á":{"x_min":-4,"x_max":969,"ha":985,"o":"m 744 197 l 770 0 l 969 0 l 839 1041 l 551 1041 l -4 0 l 198 0 l 303 197 l 744 197 m 732 348 l 379 348 l 666 888 l 669 888 l 732 348 m 879 1344 l 605 1183 l 627 1111 l 915 1230 l 879 1344 "},"g":{"x_min":58.671875,"x_max":876.46875,"ha":825,"o":"m 506 604 b 632 386 654 604 665 541 b 406 125 597 212 578 125 b 308 386 254 125 274 220 b 506 604 346 569 387 604 m 551 -34 b 341 -190 525 -159 487 -190 b 232 -75 245 -190 211 -175 l 72 -75 b 312 -323 15 -293 139 -323 b 723 1 574 -323 669 -261 l 876 729 l 704 729 l 688 619 l 683 619 b 484 737 658 715 585 737 b 129 343 218 737 175 566 b 329 -8 84 129 84 -8 b 575 104 416 -8 510 8 l 579 104 l 551 -34 "},"²":{"x_min":134.609375,"x_max":694.09375,"ha":588,"o":"m 619 533 l 287 533 l 289 551 b 436 645 306 631 334 629 b 685 856 594 672 651 691 b 502 1050 719 1022 646 1050 b 217 822 277 1050 248 975 l 346 822 b 480 948 372 947 393 948 b 556 856 552 948 572 936 b 398 733 533 743 511 755 b 157 538 257 709 191 698 l 134 425 l 596 425 l 619 533 "},"–":{"x_min":65,"x_max":774.140625,"ha":694,"o":"m 93 450 l 65 316 l 745 316 l 774 450 l 93 450 "},"ë":{"x_min":108.296875,"x_max":819.734375,"ha":792,"o":"m 595 231 b 412 125 574 123 507 125 b 298 331 258 125 265 175 l 789 331 b 540 737 854 650 834 737 b 131 362 251 737 186 623 b 385 -8 73 80 111 -8 b 767 231 589 -8 719 2 l 595 231 m 321 443 b 511 604 348 572 363 604 b 640 443 651 604 672 593 l 321 443 m 383 965 l 357 843 l 492 843 l 518 965 l 383 965 m 661 965 l 635 843 l 770 843 l 795 965 l 661 965 "},"ƒ":{"x_min":38,"x_max":1072,"ha":979,"o":"m 1072 1050 b 632 790 821 1050 733 1058 l 587 675 l 465 675 l 416 541 l 538 541 l 306 -66 b 89 -190 258 -188 251 -190 l 38 -323 b 473 -100 280 -323 386 -323 l 718 541 l 878 541 l 927 675 l 767 675 l 812 790 b 1020 916 858 916 899 916 l 1072 1050 "},"Î":{"x_min":90,"x_max":679.09375,"ha":383,"o":"m 502 1041 l 306 1041 l 90 0 l 285 0 l 502 1041 m 468 1343 l 194 1193 l 212 1123 l 439 1211 l 630 1123 l 679 1193 l 468 1343 "},"e":{"x_min":108.296875,"x_max":819.734375,"ha":792,"o":"m 595 231 b 412 125 574 123 507 125 b 298 331 258 125 265 175 l 789 331 b 540 737 854 650 834 737 b 131 362 251 737 186 623 b 385 -8 73 80 111 -8 b 767 231 589 -8 719 2 l 595 231 m 321 443 b 511 604 348 572 363 604 b 640 443 651 604 672 593 l 321 443 "},"Ã":{"x_min":-4,"x_max":1004.984375,"ha":985,"o":"m 744 197 l 770 0 l 969 0 l 840 1041 l 551 1041 l -4 0 l 198 0 l 303 197 l 744 197 m 732 348 l 379 348 l 667 888 l 670 888 l 732 348 m 930 1290 b 841 1227 908 1261 877 1227 b 648 1307 785 1227 720 1307 b 467 1188 572 1307 514 1251 l 544 1140 b 629 1198 566 1172 589 1198 b 822 1122 685 1198 743 1122 b 1004 1243 900 1122 955 1179 l 930 1290 "},"J":{"x_min":84.1875,"x_max":929.515625,"ha":810,"o":"m 733 1041 l 583 320 b 416 162 557 193 533 162 b 297 330 262 162 269 194 l 312 408 l 125 408 l 95 258 b 380 -8 44 18 172 -8 b 779 320 615 -8 722 47 l 929 1041 l 733 1041 "},"»":{"x_min":88,"x_max":729.015625,"ha":735,"o":"m 628 749 l 496 682 l 579 382 l 365 88 l 459 18 l 729 382 l 628 749 m 349 749 l 218 682 l 301 382 l 88 88 l 181 18 l 451 382 l 349 749 "},"∆":{"x_min":45,"x_max":1084,"ha":1132,"o":"m 45 0 l 1063 0 l 1084 97 l 874 1045 l 674 1045 l 65 95 l 45 0 m 249 129 l 592 666 b 732 901 634 738 708 855 l 739 901 b 787 641 746 837 774 712 l 901 129 l 249 129 "},"©":{"x_min":115.921875,"x_max":1176.71875,"ha":1097,"o":"m 536 -8 b 1164 520 821 -8 1103 227 b 756 1050 1226 813 1042 1050 b 127 520 469 1050 189 813 b 536 -8 66 227 248 -8 m 556 91 b 224 520 322 91 174 283 b 734 950 273 758 500 950 b 1067 520 965 950 1116 758 b 556 91 1017 283 786 91 m 772 426 b 625 318 755 361 688 318 b 497 527 516 318 475 427 b 707 734 519 633 595 734 b 815 630 772 734 817 695 l 931 630 b 729 831 937 756 854 831 b 382 525 552 831 418 701 b 605 220 346 354 431 220 b 888 426 726 220 847 297 l 772 426 "},"˘":{"x_min":310.140625,"x_max":774,"ha":679,"o":"m 312 1011 b 497 788 294 888 375 788 b 774 1011 618 788 739 888 l 684 1011 b 518 891 658 941 586 891 b 402 1011 448 891 398 941 l 312 1011 "},"≥":{"x_min":279.03125,"x_max":1037.171875,"ha":1142,"o":"m 287 945 l 287 834 l 932 545 l 932 543 l 287 254 l 287 143 l 1037 491 l 1037 595 l 287 945 m 1035 -16 l 1035 81 l 279 81 l 279 -16 l 1035 -16 "},"ò":{"x_min":109.875,"x_max":835.265625,"ha":808,"o":"m 550 737 b 136 363 252 737 194 647 b 394 -8 77 81 96 -8 b 808 363 693 -8 750 81 b 550 737 867 647 848 737 m 521 604 b 635 362 674 604 678 559 b 422 125 596 168 574 125 b 306 362 269 125 267 168 b 521 604 348 559 369 604 m 522 1031 l 437 918 l 676 798 l 728 870 l 522 1031 "},"^":{"x_min":144,"x_max":803,"ha":811,"o":"m 566 1041 l 144 368 l 280 368 l 575 852 l 666 368 l 803 368 l 661 1041 l 566 1041 "},"«":{"x_min":148,"x_max":783.9375,"ha":735,"o":"m 404 749 l 148 382 l 266 18 l 391 88 l 297 382 l 506 682 l 404 749 m 683 749 l 425 382 l 545 18 l 669 88 l 575 382 l 783 682 l 683 749 "},"D":{"x_min":84.125,"x_max":1125.296875,"ha":1047,"o":"m 84 0 l 604 0 b 1057 408 913 0 1012 191 l 1109 654 b 787 1041 1167 937 1069 1041 l 300 1041 l 84 0 m 315 170 l 461 870 l 752 870 b 913 654 902 870 949 827 l 861 408 b 639 170 838 291 771 170 l 315 170 "},"∙":{"x_min":216,"x_max":427,"ha":489,"o":"m 427 488 l 255 488 l 216 298 l 387 298 l 427 488 "},"ł":{"x_min":72,"x_max":538,"ha":378,"o":"m 393 587 l 512 680 l 538 802 l 419 709 l 487 1041 l 315 1041 l 216 563 l 97 469 l 72 347 l 191 443 l 99 0 l 270 0 l 393 587 "},"ÿ":{"x_min":69,"x_max":819,"ha":674,"o":"m 819 729 l 644 729 l 376 108 l 373 108 l 322 729 l 145 729 l 228 0 l 311 0 b 132 -190 278 -84 240 -190 b 97 -186 120 -190 108 -187 l 69 -318 b 141 -323 93 -319 116 -323 b 475 -29 341 -323 401 -194 l 819 729 m 324 965 l 299 843 l 433 843 l 459 965 l 324 965 m 602 965 l 576 843 l 711 843 l 737 965 l 602 965 "},"Ł":{"x_min":42,"x_max":797,"ha":785,"o":"m 402 563 l 665 769 l 697 925 l 435 719 l 501 1041 l 305 1041 l 205 555 l 74 452 l 42 294 l 172 398 l 89 0 l 761 0 l 797 170 l 320 170 l 402 563 "},"í":{"x_min":75,"x_max":502.09375,"ha":328,"o":"m 398 729 l 227 729 l 75 0 l 246 0 l 398 729 m 465 1031 l 191 870 l 213 798 l 502 918 l 465 1031 "},"ˆ":{"x_min":286,"x_max":770.5625,"ha":703,"o":"m 559 1030 l 286 880 l 303 811 l 532 898 l 721 811 l 770 880 l 559 1030 "},"w":{"x_min":155.171875,"x_max":1233.171875,"ha":1106,"o":"m 1233 729 l 1067 729 l 816 119 l 811 119 l 801 729 l 588 729 l 321 119 l 317 119 l 323 729 l 155 729 l 164 0 l 413 0 l 662 586 l 666 586 l 672 0 l 917 0 l 1233 729 "},"$":{"x_min":84.09375,"x_max":1065.5625,"ha":979,"o":"m 624 445 b 805 313 753 443 832 443 b 564 155 778 184 733 154 l 624 445 m 717 886 b 881 779 853 883 898 879 l 875 744 l 1047 744 l 1054 779 b 751 1050 1108 1036 962 1043 l 771 1151 l 662 1151 l 642 1050 b 195 741 393 1050 251 1015 b 515 445 142 487 274 468 l 456 155 b 269 301 293 156 240 163 l 277 338 l 105 338 l 97 301 b 422 -8 59 116 83 -8 l 399 -116 l 507 -116 l 530 -8 b 991 313 802 -8 938 58 b 658 609 1048 588 896 597 l 717 886 m 549 609 b 381 741 428 618 355 618 b 608 886 409 883 461 883 l 549 609 "},"∫":{"x_min":232.75,"x_max":792.171875,"ha":824,"o":"m 792 1231 b 696 1252 774 1241 733 1252 b 529 1191 637 1252 573 1236 b 436 869 462 1127 436 1033 b 461 143 436 630 461 394 b 408 -95 461 1 439 -56 b 332 -127 389 -116 359 -127 b 255 -108 299 -127 270 -115 l 232 -218 b 352 -244 255 -231 307 -244 b 534 -150 423 -244 495 -215 b 598 140 568 -97 598 -5 b 574 852 598 388 574 620 b 624 1104 574 980 586 1061 b 709 1141 645 1130 679 1141 b 770 1126 730 1141 755 1134 l 792 1231 "},"\\":{"x_min":147.578125,"x_max":413,"ha":386,"o":"m 260 -156 l 413 -156 l 301 1041 l 147 1041 l 260 -156 "},"Ì":{"x_min":90,"x_max":585.078125,"ha":383,"o":"m 502 1041 l 306 1041 l 90 0 l 285 0 l 502 1041 m 379 1344 l 293 1230 l 533 1111 l 585 1183 l 379 1344 "},"µ":{"x_min":20,"x_max":875,"ha":824,"o":"m 722 0 l 875 729 l 703 729 l 614 308 b 402 125 589 182 534 125 b 312 269 292 125 290 165 l 409 729 l 237 729 l 20 -314 l 191 -314 l 256 -2 b 323 -8 278 -6 296 -8 b 574 112 421 -8 514 15 l 579 112 l 556 0 l 722 0 "},"Ç":{"x_min":112.03125,"x_max":1057.546875,"ha":967,"o":"m 517 -18 l 343 -113 l 366 -177 l 559 -105 l 517 -18 m 1036 691 l 1048 748 b 697 1048 1096 1047 951 1048 b 183 640 396 1048 253 973 l 134 401 b 476 -9 75 97 114 -23 b 966 304 731 1 905 -9 l 980 372 l 784 372 l 772 315 b 511 161 742 166 669 161 b 332 409 306 161 289 201 l 379 640 b 661 877 422 844 464 877 b 852 748 833 877 877 869 l 840 691 l 1036 691 "},"’":{"x_min":207,"x_max":467,"ha":322,"o":"m 207 679 l 241 679 b 432 877 386 679 408 758 l 467 1041 l 295 1041 l 257 854 l 325 854 b 223 761 309 776 273 761 l 207 679 "},"-":{"x_min":65,"x_max":455.640625,"ha":369,"o":"m 93 450 l 65 316 l 427 316 l 455 450 l 93 450 "},"Q":{"x_min":135.625,"x_max":1127.78125,"ha":1064,"o":"m 1081 140 l 997 208 b 1054 389 1027 265 1050 371 l 1111 669 b 740 1050 1187 1037 981 1050 b 209 669 437 1050 277 994 l 152 389 b 519 -7 89 44 203 -7 b 904 90 636 -7 786 -10 l 978 22 l 1081 140 m 655 489 l 550 371 l 765 205 b 554 162 701 160 628 162 b 348 389 356 162 303 174 l 405 669 b 704 879 447 867 530 879 b 915 669 899 879 955 858 l 877 486 b 842 337 868 436 853 387 l 655 489 "},"M":{"x_min":90,"x_max":1497,"ha":1399,"o":"m 1276 877 l 1283 877 l 1084 0 l 1280 0 l 1497 1041 l 1175 1041 l 743 268 l 737 268 l 620 1041 l 306 1041 l 90 0 l 285 0 l 451 873 l 456 873 l 597 0 l 773 0 l 1276 877 "},"C":{"x_min":112.03125,"x_max":1057.546875,"ha":967,"o":"m 1036 691 l 1048 748 b 697 1048 1096 1047 951 1048 b 183 640 396 1048 253 973 l 134 401 b 476 -9 75 97 114 -23 b 966 304 731 1 905 -9 l 980 372 l 784 372 l 772 315 b 511 161 742 166 669 161 b 332 409 306 161 289 201 l 379 640 b 661 877 422 844 464 877 b 852 748 833 877 877 869 l 840 691 l 1036 691 "},"œ":{"x_min":105.421875,"x_max":1312.703125,"ha":1293,"o":"m 513 604 b 626 363 661 604 674 591 b 414 125 582 154 559 125 b 302 363 273 125 258 156 b 513 604 347 583 365 604 m 130 363 b 390 -8 71 80 101 -8 b 656 95 487 -8 589 -8 l 660 95 b 878 -8 678 -2 778 -8 b 1260 231 1082 -8 1212 2 l 1088 231 b 905 125 1067 123 1000 125 b 791 331 751 125 758 175 l 1282 331 b 1033 737 1347 650 1327 737 b 773 637 951 737 830 731 l 770 637 b 546 737 759 737 614 737 b 130 363 223 737 181 609 m 814 443 b 1004 604 841 572 856 604 b 1133 443 1144 604 1165 593 l 814 443 "},"!":{"x_min":124,"x_max":523,"ha":429,"o":"m 335 190 l 163 190 l 124 0 l 295 0 l 335 190 m 523 1041 l 329 1041 l 196 348 l 367 348 l 523 1041 "},"ç":{"x_min":113.546875,"x_max":817.53125,"ha":765,"o":"m 418 -16 l 244 -112 l 267 -176 l 461 -104 l 418 -16 m 594 277 b 408 125 567 150 548 125 b 309 363 256 125 271 181 b 507 604 348 551 360 604 b 634 473 627 604 657 584 l 805 473 b 536 737 854 704 748 737 b 138 363 255 737 191 619 b 380 -8 77 69 118 -8 b 766 277 621 -8 715 38 l 594 277 "},"È":{"x_min":76,"x_max":992,"ha":860,"o":"m 453 870 l 956 870 l 992 1041 l 292 1041 l 76 0 l 779 0 l 815 170 l 307 170 l 364 447 l 842 447 l 877 611 l 399 611 l 453 870 m 612 1344 l 526 1230 l 766 1111 l 817 1183 l 612 1344 "},"ﬁ":{"x_min":120,"x_max":935,"ha":811,"o":"m 935 1041 l 763 1041 l 733 893 l 905 893 l 935 1041 m 871 729 l 699 729 l 547 0 l 718 0 l 871 729 m 676 1041 l 564 1041 b 284 793 377 1041 321 968 l 272 729 l 171 729 l 143 595 l 243 595 l 120 0 l 291 0 l 415 595 l 589 595 l 617 729 l 443 729 l 451 773 b 597 908 471 863 481 912 l 649 908 l 676 1041 "},"{":{"x_min":124.984375,"x_max":665.53125,"ha":540,"o":"m 124 361 b 221 286 152 361 236 362 l 156 -23 b 272 -208 130 -151 222 -208 l 402 -208 l 431 -75 l 381 -75 b 332 -4 318 -75 325 -38 l 391 283 b 291 425 416 412 332 420 l 291 427 b 449 558 334 431 425 454 l 508 845 b 586 916 517 880 523 916 l 636 916 l 665 1050 l 534 1050 b 341 865 485 1050 368 993 l 277 555 b 153 494 265 494 180 494 l 124 361 "},"X":{"x_min":-15,"x_max":1151,"ha":963,"o":"m 1151 1041 l 926 1041 l 605 627 l 454 1041 l 225 1041 l 432 537 l -15 0 l 216 0 l 565 440 l 731 0 l 957 0 l 742 537 l 1151 1041 "},"ô":{"x_min":109.875,"x_max":835.265625,"ha":808,"o":"m 550 737 b 136 363 252 737 194 647 b 394 -8 77 81 96 -8 b 808 363 693 -8 750 81 b 550 737 867 647 848 737 m 521 604 b 635 362 674 604 678 559 b 422 125 596 168 574 125 b 306 362 269 125 267 168 b 521 604 348 559 369 604 m 611 1030 l 337 880 l 355 811 l 584 898 l 773 811 l 822 880 l 611 1030 "},"¼":{"x_min":252,"x_max":1431,"ha":1468,"o":"m 1431 625 l 1239 625 l 891 264 l 864 128 l 1198 128 l 1170 0 l 1300 0 l 1327 128 l 1380 128 l 1401 230 l 1347 230 l 1431 625 m 1218 230 l 991 230 l 1275 525 l 1279 525 l 1218 230 m 1327 1041 l 1198 1041 l 336 0 l 463 0 l 1327 1041 m 646 1041 l 486 1041 l 252 853 l 302 772 l 495 935 l 388 416 l 517 416 l 646 1041 "},"#":{"x_min":158,"x_max":1011,"ha":979,"o":"m 602 1041 l 489 750 l 318 750 l 284 590 l 427 590 l 356 405 l 190 405 l 158 245 l 294 245 l 197 0 l 323 0 l 420 245 l 568 245 l 472 0 l 598 0 l 695 245 l 868 245 l 900 405 l 760 405 l 831 590 l 976 590 l 1011 750 l 889 750 l 1002 1041 l 877 1041 l 764 750 l 616 750 l 729 1041 l 602 1041 m 553 590 l 706 590 l 632 405 l 483 405 l 553 590 "},"Ê":{"x_min":76,"x_max":992,"ha":860,"o":"m 453 870 l 956 870 l 992 1041 l 292 1041 l 76 0 l 779 0 l 815 170 l 307 170 l 364 447 l 842 447 l 877 611 l 399 611 l 453 870 m 702 1343 l 428 1193 l 446 1123 l 673 1211 l 864 1123 l 913 1193 l 702 1343 "},")":{"x_min":31.421875,"x_max":558.578125,"ha":483,"o":"m 260 886 b 356 709 392 886 374 798 l 235 131 b 65 -44 212 16 190 -44 l 31 -208 b 443 241 349 -208 379 -54 l 520 608 b 294 1050 586 930 597 1050 l 260 886 "},"Å":{"x_min":-4,"x_max":969,"ha":985,"o":"m 744 197 l 770 0 l 969 0 l 839 1041 l 551 1041 l -4 0 l 198 0 l 303 197 l 744 197 m 732 348 l 379 348 l 666 888 l 669 888 l 732 348 m 619 1251 b 717 1123 604 1181 647 1123 b 869 1251 786 1123 854 1181 b 770 1379 883 1322 839 1379 b 619 1251 700 1379 632 1322 m 680 1251 b 758 1316 687 1287 722 1316 b 808 1251 793 1316 815 1287 b 730 1186 800 1215 766 1186 b 680 1251 695 1186 672 1215 "},"ø":{"x_min":-3,"x_max":947,"ha":808,"o":"m 947 748 l 815 656 b 550 737 770 735 641 737 b 135 365 251 737 195 652 b 109 148 120 293 104 218 l 18 80 l -3 -29 l 134 72 b 400 -8 178 -6 309 -8 b 817 413 726 -8 757 126 b 837 577 829 469 842 524 l 922 635 l 947 748 m 639 381 b 587 205 628 327 611 255 b 430 125 553 127 502 125 b 290 177 382 125 292 120 l 652 452 l 639 381 m 288 272 l 302 344 b 344 508 311 392 328 463 b 512 603 377 597 434 603 b 656 548 560 603 655 608 l 288 272 "},"â":{"x_min":95.640625,"x_max":827.65625,"ha":818,"o":"m 454 327 b 590 223 539 327 612 325 b 409 111 569 119 500 111 b 276 223 294 111 254 120 b 454 327 298 327 367 327 m 544 0 l 716 0 l 811 456 b 545 737 861 701 774 737 b 193 516 382 737 238 729 l 364 516 b 521 618 385 611 446 618 b 639 458 664 618 664 576 l 620 363 l 615 363 b 417 447 590 445 505 447 b 104 223 241 447 141 398 b 324 -8 64 26 162 -8 b 566 91 407 -8 511 -5 l 570 91 l 544 0 m 616 1030 l 343 880 l 360 811 l 589 898 l 778 811 l 827 880 l 616 1030 "},"}":{"x_min":39.46875,"x_max":580.015625,"ha":540,"o":"m 580 480 b 483 555 552 480 467 479 l 547 865 b 432 1050 574 993 482 1050 l 302 1050 l 273 916 l 323 916 b 371 845 386 916 379 880 l 311 558 b 413 416 288 429 371 420 l 412 413 b 254 283 370 409 279 387 l 194 -4 b 118 -75 187 -38 181 -75 l 68 -75 l 39 -208 l 170 -208 b 362 -23 219 -208 336 -151 l 427 286 b 551 347 439 347 524 347 l 580 480 "},"‰":{"x_min":169.125,"x_max":1806.875,"ha":1794,"o":"m 1798 333 b 1611 520 1830 500 1771 520 b 1355 331 1453 520 1394 498 l 1323 179 b 1502 -8 1293 12 1343 -8 b 1766 180 1660 -8 1728 13 l 1798 333 m 1653 195 b 1523 97 1633 98 1607 97 b 1443 195 1439 97 1422 98 l 1470 325 b 1590 415 1489 415 1505 415 b 1681 325 1681 415 1700 415 l 1653 195 m 1271 333 b 1084 520 1303 500 1244 520 b 828 331 926 520 867 498 l 796 179 b 975 -8 766 12 816 -8 b 1239 180 1133 -8 1201 13 l 1271 333 m 1126 195 b 996 97 1106 98 1080 97 b 916 195 912 97 895 98 l 943 325 b 1063 415 962 415 978 415 b 1154 325 1154 415 1173 415 l 1126 195 m 652 862 b 465 1050 684 1029 625 1050 b 209 861 307 1050 248 1027 l 177 708 b 356 520 147 541 197 520 b 620 709 514 520 582 543 l 652 862 m 507 725 b 377 626 487 627 461 626 b 297 725 293 626 276 627 l 324 854 b 444 944 343 944 359 944 b 535 854 535 944 554 944 l 507 725 m 1224 1041 l 1095 1041 l 234 0 l 361 0 l 1224 1041 "},"Ä":{"x_min":-4,"x_max":969,"ha":985,"o":"m 744 197 l 770 0 l 969 0 l 839 1041 l 551 1041 l -4 0 l 198 0 l 303 197 l 744 197 m 732 348 l 379 348 l 666 888 l 669 888 l 732 348 m 543 1277 l 517 1155 l 651 1155 l 677 1277 l 543 1277 m 820 1277 l 794 1155 l 929 1155 l 955 1277 l 820 1277 "},"¸":{"x_min":79,"x_max":295.421875,"ha":428,"o":"m 253 -16 l 79 -112 l 102 -176 l 295 -103 l 253 -16 "},"a":{"x_min":95.640625,"x_max":825.125,"ha":818,"o":"m 454 327 b 590 223 539 327 612 325 b 409 111 569 119 500 111 b 276 223 294 111 254 120 b 454 327 298 327 367 327 m 544 0 l 716 0 l 811 456 b 545 737 861 701 774 737 b 193 516 382 737 238 729 l 364 516 b 521 618 385 611 446 618 b 639 458 664 618 664 576 l 620 363 l 615 363 b 417 447 590 445 505 447 b 104 223 241 447 141 398 b 324 -8 64 26 162 -8 b 566 91 407 -8 511 -5 l 570 91 l 544 0 "},"—":{"x_min":65,"x_max":1454.703125,"ha":1389,"o":"m 93 450 l 65 316 l 1426 316 l 1454 450 l 93 450 "},"=":{"x_min":108,"x_max":851,"ha":811,"o":"m 165 462 l 823 462 l 851 595 l 192 595 l 165 462 m 108 191 l 766 191 l 795 325 l 136 325 l 108 191 "},"N":{"x_min":90,"x_max":1252,"ha":1149,"o":"m 891 170 l 885 170 l 630 1041 l 306 1041 l 90 0 l 285 0 l 450 870 l 457 870 l 710 0 l 1035 0 l 1252 1041 l 1056 1041 l 891 170 "},"˚":{"x_min":289.328125,"x_max":545.1875,"ha":464,"o":"m 291 912 b 391 784 278 843 321 784 b 542 912 460 784 528 843 b 444 1040 557 983 513 1040 b 291 912 374 1040 306 983 m 353 912 b 430 977 361 948 395 977 b 481 912 466 977 489 948 b 403 847 474 876 438 847 b 353 912 368 847 346 876 "},"ú":{"x_min":119.640625,"x_max":873.828125,"ha":824,"o":"m 721 0 l 873 729 l 702 729 l 613 308 b 401 125 588 181 533 125 b 311 269 291 125 289 165 l 408 729 l 236 729 l 126 201 b 322 -8 93 41 179 -8 b 573 112 420 -8 513 15 l 578 112 l 555 0 l 721 0 m 724 1031 l 450 870 l 472 798 l 760 918 l 724 1031 "},"⁄":{"x_min":-3,"x_max":988,"ha":783,"o":"m 988 1041 l 858 1041 l -3 0 l 123 0 l 988 1041 "},"2":{"x_min":84.515625,"x_max":1019.8125,"ha":979,"o":"m 887 163 l 303 163 l 310 198 b 590 377 343 354 398 348 b 1006 729 853 420 948 454 b 698 1050 1063 1004 939 1050 b 224 670 325 1050 277 925 l 409 670 b 664 886 453 884 487 886 b 820 729 808 886 849 866 b 526 522 781 540 737 559 b 125 198 290 484 181 465 l 84 0 l 853 0 l 887 163 "},"ü":{"x_min":119.640625,"x_max":873.828125,"ha":824,"o":"m 721 0 l 873 729 l 702 729 l 613 308 b 401 125 588 181 533 125 b 311 269 291 125 289 165 l 408 729 l 236 729 l 126 201 b 322 -8 93 41 179 -8 b 573 112 420 -8 513 15 l 578 112 l 555 0 l 721 0 m 398 965 l 372 843 l 507 843 l 533 965 l 398 965 m 676 965 l 650 843 l 785 843 l 811 965 l 676 965 "},"¯":{"x_min":280,"x_max":677.4375,"ha":592,"o":"m 301 958 l 280 852 l 655 852 l 677 958 l 301 958 "},"Z":{"x_min":34,"x_max":1058,"ha":900,"o":"m 1058 1041 l 275 1041 l 239 870 l 776 870 l 774 865 l 69 169 l 34 0 l 848 0 l 883 170 l 311 170 l 313 175 l 1022 870 l 1058 1041 "},"u":{"x_min":119.640625,"x_max":873.828125,"ha":824,"o":"m 721 0 l 873 729 l 702 729 l 613 308 b 401 125 588 181 533 125 b 311 269 291 125 289 165 l 408 729 l 236 729 l 126 201 b 322 -8 93 41 179 -8 b 573 112 420 -8 513 15 l 578 112 l 555 0 l 721 0 "},"˜":{"x_min":284,"x_max":821.640625,"ha":746,"o":"m 748 978 b 658 915 725 949 693 915 b 465 995 602 915 537 995 b 284 876 388 995 331 939 l 361 828 b 447 886 384 860 407 886 b 639 810 503 886 560 810 b 821 931 716 810 774 867 l 748 978 "},"Ó":{"x_min":112.859375,"x_max":1077.828125,"ha":993,"o":"m 703 1050 b 191 669 379 1050 259 993 l 134 388 b 483 -8 62 47 167 -8 b 1001 388 792 -8 932 55 l 1059 669 b 703 1050 1129 1004 997 1050 m 668 879 b 863 669 842 879 908 865 l 806 388 b 518 162 763 187 697 162 b 330 388 322 162 286 181 l 387 669 b 668 879 427 834 457 879 m 856 1344 l 582 1183 l 604 1111 l 893 1230 l 856 1344 "},"k":{"x_min":83,"x_max":843,"ha":749,"o":"m 471 1041 l 299 1041 l 83 0 l 254 0 l 322 326 l 364 326 l 535 0 l 742 0 l 517 386 l 843 729 l 649 729 l 389 445 l 347 445 l 471 1041 "},"ˇ":{"x_min":302.4375,"x_max":787,"ha":703,"o":"m 513 811 l 787 960 l 767 1030 l 540 942 l 350 1030 l 302 960 l 513 811 "},"Ù":{"x_min":139.40625,"x_max":1154.578125,"ha":1047,"o":"m 958 1041 l 804 301 b 546 162 781 188 727 162 b 347 301 356 162 325 194 l 501 1041 l 305 1041 l 151 301 b 510 -8 90 9 271 -8 b 1000 301 758 -8 940 11 l 1154 1041 l 958 1041 m 705 1344 l 619 1230 l 859 1111 l 910 1183 l 705 1344 "},"Ÿ":{"x_min":201,"x_max":1143,"ha":931,"o":"m 1143 1041 l 917 1041 l 578 597 l 573 597 l 424 1041 l 201 1041 l 436 400 l 353 0 l 549 0 l 632 400 l 1143 1041 m 516 1277 l 490 1155 l 625 1155 l 651 1277 l 516 1277 m 794 1277 l 768 1155 l 903 1155 l 929 1277 l 794 1277 "},"€":{"x_min":88.609375,"x_max":1113.203125,"ha":979,"o":"m 960 325 b 639 162 845 202 777 162 l 545 162 b 379 358 378 162 350 195 l 820 358 l 883 481 l 404 481 l 419 556 l 921 556 l 983 680 l 446 680 b 695 879 485 850 530 879 l 789 879 b 1016 741 883 879 967 877 l 1113 933 b 820 1050 1062 1026 994 1050 l 730 1050 b 270 680 470 1050 341 981 l 192 680 l 129 556 l 243 556 l 228 481 l 151 481 l 88 358 l 204 358 b 469 -8 155 87 202 -8 l 606 -8 b 911 94 759 -8 835 15 l 960 325 "},"¢":{"x_min":229.75,"x_max":938.625,"ha":979,"o":"m 485 241 b 424 477 382 254 395 341 b 586 721 450 599 476 703 l 485 241 m 553 107 b 888 393 777 113 854 193 l 717 393 b 581 241 698 284 676 250 l 681 721 b 758 589 762 705 774 684 l 929 589 b 709 855 966 784 891 853 l 728 949 l 632 949 l 613 855 b 253 477 355 849 300 703 b 458 107 208 257 205 107 l 434 -9 l 529 -9 l 553 107 "},"Ω":{"x_min":75.796875,"x_max":1268.671875,"ha":1269,"o":"m 350 127 l 103 127 l 75 0 l 518 0 l 538 97 b 377 523 420 162 334 313 b 814 908 422 740 602 908 b 1084 530 1036 908 1123 716 b 745 97 1036 301 889 168 l 725 0 l 1166 0 l 1193 127 l 941 127 l 941 131 b 1258 558 1074 209 1216 352 b 840 1036 1310 802 1160 1036 b 214 554 535 1036 270 825 b 350 131 172 352 254 209 l 350 127 "},"ß":{"x_min":91.6875,"x_max":897,"ha":842,"o":"m 91 0 l 263 0 l 427 793 b 593 930 452 900 487 930 b 730 834 672 930 746 913 b 569 698 707 725 640 698 l 520 698 l 495 579 l 544 579 b 666 344 689 579 698 505 b 483 125 640 222 592 125 b 377 161 441 125 408 143 l 347 18 b 494 -8 392 2 442 -8 b 837 344 721 -8 794 140 b 687 644 870 504 864 634 l 687 648 b 890 834 794 662 867 723 b 636 1050 928 1020 788 1050 b 240 712 338 1050 291 959 l 91 0 "},"é":{"x_min":108.296875,"x_max":819.734375,"ha":792,"o":"m 595 231 b 412 125 574 123 507 125 b 298 331 258 125 265 175 l 789 331 b 540 737 854 650 834 737 b 131 362 251 737 186 623 b 385 -8 73 80 111 -8 b 767 231 589 -8 719 2 l 595 231 m 321 443 b 511 604 348 572 363 604 b 640 443 651 604 672 593 l 321 443 m 719 1031 l 446 870 l 468 798 l 756 918 l 719 1031 "},"s":{"x_min":94.28125,"x_max":807.0625,"ha":774,"o":"m 800 530 b 536 737 842 734 676 737 b 168 533 352 737 209 733 b 431 306 129 347 169 311 b 587 208 603 304 601 272 b 405 111 567 108 507 111 b 276 229 279 111 257 123 l 104 229 b 381 -8 55 -8 186 -8 b 759 208 562 -8 719 11 b 488 440 808 444 656 431 b 338 522 340 447 323 450 b 511 618 358 618 420 618 b 628 530 602 618 647 618 l 800 530 "},"B":{"x_min":87.5,"x_max":1068.90625,"ha":994,"o":"m 378 454 l 679 454 b 788 306 795 454 811 420 b 587 170 761 179 704 170 l 318 170 l 378 454 m 612 0 b 980 290 828 0 932 59 b 861 534 1009 422 1000 518 l 863 540 b 1056 770 992 570 1032 651 b 811 1041 1104 1000 1011 1041 l 303 1041 l 87 0 l 612 0 m 464 870 l 740 870 b 856 751 837 870 879 862 b 691 605 833 640 802 605 l 410 605 l 464 870 "},"…":{"x_min":142,"x_max":1259,"ha":1389,"o":"m 353 190 l 181 190 l 142 0 l 313 0 l 353 190 m 806 190 l 634 190 l 595 0 l 766 0 l 806 190 m 1259 190 l 1087 190 l 1048 0 l 1219 0 l 1259 190 "},"?":{"x_min":221.484375,"x_max":911,"ha":826,"o":"m 515 331 l 519 355 b 659 483 538 444 580 452 b 897 755 827 548 865 602 b 636 1048 951 1009 838 1048 b 229 762 376 1048 280 1004 l 221 725 l 392 725 l 401 762 b 599 902 421 884 459 902 b 726 755 723 902 753 888 b 548 591 701 637 650 633 b 348 355 407 534 379 504 l 343 331 l 515 331 m 485 190 l 314 190 l 274 0 l 446 0 l 485 190 "},"H":{"x_min":90,"x_max":1173,"ha":1068,"o":"m 1173 1041 l 977 1041 l 888 615 l 413 615 l 502 1041 l 306 1041 l 90 0 l 285 0 l 378 444 l 853 444 l 760 0 l 956 0 l 1173 1041 "},"î":{"x_min":75,"x_max":586.90625,"ha":328,"o":"m 399 729 l 227 729 l 75 0 l 246 0 l 399 729 m 375 1030 l 102 880 l 119 811 l 348 898 l 537 811 l 586 880 l 375 1030 "},"c":{"x_min":113.546875,"x_max":817.53125,"ha":765,"o":"m 594 277 b 408 125 567 150 548 125 b 309 363 256 125 271 181 b 507 604 348 551 360 604 b 634 473 627 604 657 584 l 805 473 b 536 737 854 704 748 737 b 138 363 255 737 191 619 b 380 -8 77 69 118 -8 b 766 277 621 -8 715 38 l 594 277 "},"¶":{"x_min":120.625,"x_max":1159.953125,"ha":979,"o":"m 878 -315 l 1159 1041 l 591 1041 b 139 679 309 1041 201 983 b 444 333 75 373 177 333 l 597 333 l 463 -315 l 611 -315 l 859 877 l 977 877 l 729 -315 l 878 -315 m 631 497 l 467 497 b 324 679 324 497 288 512 b 556 877 362 862 385 877 l 710 877 l 631 497 "},"−":{"x_min":136,"x_max":822,"ha":811,"o":"m 136 326 l 794 326 l 822 459 l 163 459 l 136 326 "},"≠":{"x_min":249.953125,"x_max":1012.046875,"ha":1115,"o":"m 835 773 l 756 809 l 671 623 l 249 623 l 249 526 l 629 526 l 527 302 l 249 302 l 249 205 l 485 205 l 414 51 l 492 13 l 579 205 l 1012 205 l 1012 302 l 621 302 l 724 526 l 1012 526 l 1012 623 l 765 623 l 835 773 "},"•":{"x_min":202.09375,"x_max":724.421875,"ha":722,"o":"m 718 520 b 517 781 748 665 658 781 b 208 520 374 781 235 665 b 408 261 176 375 268 261 b 718 520 549 261 688 377 "},"¥":{"x_min":139,"x_max":1146,"ha":979,"o":"m 914 744 l 1146 1041 l 930 1041 l 603 597 l 598 597 l 458 1041 l 246 1041 l 349 744 l 227 744 l 196 593 l 398 593 l 442 473 l 170 473 l 139 322 l 449 322 l 382 0 l 567 0 l 634 322 l 954 322 l 985 473 l 703 473 l 800 593 l 1011 593 l 1042 744 l 914 744 "},"(":{"x_min":90.75,"x_max":618.5,"ha":483,"o":"m 389 -44 b 293 131 257 -44 275 43 l 414 709 b 584 886 437 825 459 886 l 618 1050 b 206 600 300 1050 270 895 l 129 233 b 355 -208 61 -88 52 -208 l 389 -44 "},"U":{"x_min":139.40625,"x_max":1154.578125,"ha":1047,"o":"m 958 1041 l 804 301 b 546 162 781 188 727 162 b 347 301 356 162 325 194 l 501 1041 l 305 1041 l 151 301 b 510 -8 90 9 271 -8 b 1000 301 758 -8 940 11 l 1154 1041 l 958 1041 "},"◊":{"x_min":302,"x_max":1101,"ha":1208,"o":"m 1101 508 l 766 1093 l 638 1093 l 302 508 l 635 -76 l 764 -76 l 1101 508 m 955 504 l 733 111 b 704 45 723 94 710 62 l 699 45 b 672 112 695 61 684 87 l 447 511 l 666 901 b 698 969 679 923 689 948 l 700 969 b 732 901 707 951 721 922 l 955 504 "},"Ñ":{"x_min":90,"x_max":1252,"ha":1149,"o":"m 891 170 l 885 170 l 630 1041 l 306 1041 l 90 0 l 285 0 l 450 870 l 457 870 l 710 0 l 1035 0 l 1252 1041 l 1056 1041 l 891 170 m 1009 1290 b 921 1227 988 1261 956 1227 b 728 1307 865 1227 800 1307 b 547 1188 651 1307 594 1251 l 624 1140 b 709 1198 646 1172 669 1198 b 902 1122 764 1198 823 1122 b 1084 1243 979 1122 1035 1179 l 1009 1290 "},"F":{"x_min":79,"x_max":971,"ha":808,"o":"m 456 870 l 935 870 l 971 1041 l 295 1041 l 79 0 l 275 0 l 364 430 l 819 430 l 853 594 l 399 594 l 456 870 "},"­":{"x_min":65,"x_max":455.640625,"ha":369,"o":"m 93 450 l 65 316 l 427 316 l 455 450 l 93 450 "},":":{"x_min":121,"x_max":445,"ha":489,"o":"m 332 190 l 160 190 l 121 0 l 292 0 l 332 190 m 445 729 l 273 729 l 232 538 l 404 538 l 445 729 "},"Û":{"x_min":139.40625,"x_max":1154.578125,"ha":1047,"o":"m 958 1041 l 804 301 b 546 162 781 188 727 162 b 347 301 356 162 325 194 l 501 1041 l 305 1041 l 151 301 b 510 -8 90 9 271 -8 b 1000 301 758 -8 940 11 l 1154 1041 l 958 1041 m 793 1343 l 520 1193 l 537 1123 l 765 1211 l 955 1123 l 1004 1193 l 793 1343 "},"*":{"x_min":377,"x_max":919,"ha":979,"o":"m 919 804 l 906 909 l 706 841 l 747 1041 l 645 1041 l 604 841 l 432 909 l 377 811 l 547 740 l 400 579 l 468 516 l 626 683 l 703 516 l 797 579 l 720 740 l 919 804 "},"†":{"x_min":246,"x_max":986,"ha":979,"o":"m 787 1041 l 602 1041 l 538 734 l 277 734 l 246 583 l 507 583 l 320 -315 l 505 -315 l 692 583 l 954 583 l 986 734 l 723 734 l 787 1041 "},"∕":{"x_min":-3,"x_max":988,"ha":783,"o":"m 988 1041 l 858 1041 l -3 0 l 123 0 l 988 1041 "},"°":{"x_min":238.359375,"x_max":655.78125,"ha":556,"o":"m 651 841 b 490 1050 674 955 602 1050 b 243 841 377 1050 264 955 b 403 633 218 726 290 633 b 651 841 515 633 626 726 m 557 841 b 424 729 543 779 484 729 b 337 841 362 729 323 779 b 469 954 347 902 409 954 b 557 841 530 954 569 902 "},"V":{"x_min":201,"x_max":1152.421875,"ha":940,"o":"m 949 1041 l 496 166 l 492 166 l 401 1041 l 201 1041 l 311 0 l 606 0 l 1152 1041 l 949 1041 "},"å":{"x_min":95.625,"x_max":825.109375,"ha":818,"o":"m 454 329 b 590 225 539 329 612 326 b 409 112 568 120 500 112 b 276 225 294 112 254 122 b 454 329 298 329 367 329 m 544 1 l 716 1 l 811 458 b 545 738 861 702 774 738 b 193 518 382 738 238 730 l 364 518 b 521 619 385 612 446 619 b 639 459 664 619 664 577 l 620 365 l 615 365 b 417 448 590 447 505 448 b 104 225 241 448 141 400 b 324 -6 64 27 162 -6 b 566 93 407 -6 511 -4 l 570 93 l 544 1 m 465 912 b 564 784 451 843 495 784 b 716 912 634 784 702 843 b 617 1040 731 983 687 1040 b 465 912 548 1040 480 983 m 526 912 b 604 977 534 948 568 977 b 654 912 639 977 662 948 b 577 847 647 876 612 847 b 526 912 541 847 519 876 "}," ":{"x_min":0,"x_max":0,"ha":489},"0":{"x_min":122.734375,"x_max":1055.421875,"ha":979,"o":"m 699 1050 b 186 616 351 1050 260 965 l 147 425 b 479 -8 69 52 173 -8 b 991 425 785 -8 913 52 l 1030 613 b 699 1050 1108 986 1006 1050 m 513 155 b 323 377 321 155 278 163 l 381 662 b 665 886 426 875 474 886 b 854 662 856 886 899 875 l 796 377 b 513 155 751 163 703 155 "},"”":{"x_min":207,"x_max":730,"ha":589,"o":"m 207 679 l 241 679 b 433 877 386 679 408 758 l 467 1041 l 295 1041 l 257 854 l 325 854 b 223 761 309 776 273 761 l 207 679 m 469 679 l 503 679 b 695 877 649 679 671 758 l 730 1041 l 558 1041 l 520 854 l 588 854 b 486 761 572 776 536 761 l 469 679 "},"¾":{"x_min":162.53125,"x_max":1446.5625,"ha":1468,"o":"m 1446 625 l 1254 625 l 907 263 l 880 127 l 1213 127 l 1186 0 l 1315 0 l 1343 127 l 1396 127 l 1416 230 l 1363 230 l 1446 625 m 1234 230 l 1006 230 l 1291 525 l 1295 525 l 1234 230 m 1356 1041 l 1227 1041 l 366 0 l 493 0 l 1356 1041 m 379 687 l 468 687 b 528 600 535 687 540 661 b 383 525 513 526 484 525 b 303 630 287 525 283 527 l 174 630 b 362 416 131 423 208 416 b 657 600 518 416 620 427 b 566 737 673 681 649 730 l 566 740 b 707 886 651 748 691 812 b 494 1050 740 1048 609 1050 b 225 843 332 1050 263 1023 l 355 843 b 471 941 373 930 389 941 b 578 886 565 941 587 936 b 491 795 561 811 548 795 l 403 795 l 379 687 "},"@":{"x_min":208.734375,"x_max":1337.59375,"ha":1354,"o":"m 1005 765 l 974 694 l 971 694 b 861 785 964 746 913 785 b 479 433 699 785 511 590 b 633 224 457 324 521 224 b 824 304 684 224 732 239 b 948 224 846 244 880 224 b 1328 592 1133 224 1292 422 b 922 1050 1384 862 1178 1050 b 219 462 603 1050 281 767 b 661 -7 153 153 403 -7 b 945 46 748 -7 860 4 l 926 150 b 686 108 849 118 759 108 b 353 486 469 108 307 264 b 898 933 394 678 624 933 b 1205 586 1114 933 1241 758 b 981 330 1188 505 1084 330 b 939 403 930 330 922 361 l 1111 765 l 1005 765 m 819 678 b 903 582 882 678 917 646 b 684 330 884 487 796 330 b 615 455 609 330 600 386 b 819 678 645 603 765 678 "},"ö":{"x_min":109.875,"x_max":835.265625,"ha":808,"o":"m 550 737 b 136 363 252 737 194 647 b 394 -8 77 81 96 -8 b 808 363 693 -8 750 81 b 550 737 867 647 848 737 m 521 604 b 635 362 674 604 678 559 b 422 125 596 168 574 125 b 306 362 269 125 267 168 b 521 604 348 559 369 604 m 392 965 l 366 843 l 501 843 l 527 965 l 392 965 m 669 965 l 644 843 l 778 843 l 804 965 l 669 965 "},"i":{"x_min":75,"x_max":463,"ha":328,"o":"m 399 729 l 227 729 l 75 0 l 246 0 l 399 729 m 463 1041 l 291 1041 l 261 893 l 433 893 l 463 1041 "},"≤":{"x_min":277.671875,"x_max":1039.890625,"ha":1143,"o":"m 1037 143 l 1037 254 l 390 544 l 390 547 l 1035 834 l 1035 945 l 285 597 l 285 493 l 1037 143 m 1039 -16 l 1039 81 l 277 81 l 277 -16 l 1039 -16 "},"Õ":{"x_min":112.859375,"x_max":1077.828125,"ha":993,"o":"m 703 1049 b 191 669 379 1049 259 992 l 134 388 b 483 -8 62 47 167 -8 b 1001 388 792 -8 932 55 l 1059 669 b 703 1049 1129 1004 997 1049 m 668 879 b 863 669 842 879 908 865 l 806 388 b 518 162 763 187 697 162 b 330 388 322 162 286 181 l 387 669 b 668 879 427 834 457 879 m 934 1290 b 845 1227 912 1261 880 1227 b 652 1307 789 1227 724 1307 b 470 1188 575 1307 518 1251 l 548 1140 b 632 1198 570 1172 593 1198 b 826 1122 688 1198 747 1122 b 1008 1243 904 1122 959 1179 l 934 1290 "},"þ":{"x_min":15.953125,"x_max":850.75,"ha":828,"o":"m 450 125 b 324 343 301 125 292 187 b 549 604 360 516 374 604 b 649 343 706 604 683 508 b 450 125 609 159 568 125 m 15 -315 l 187 -315 l 273 97 l 280 97 b 473 -8 297 8 386 -8 b 820 343 718 -8 775 129 b 628 737 867 566 894 737 b 384 619 528 737 443 715 l 382 619 l 469 1041 l 297 1041 l 15 -315 "},"]":{"x_min":33.8125,"x_max":612,"ha":483,"o":"m 349 -208 l 612 1050 l 296 1050 l 265 898 l 395 898 l 195 -56 l 65 -56 l 33 -208 l 349 -208 "},"m":{"x_min":85.859375,"x_max":1285.96875,"ha":1283,"o":"m 238 729 l 85 0 l 257 0 l 343 411 b 548 604 370 540 409 604 b 642 476 642 604 657 568 l 543 0 l 714 0 l 800 411 b 1005 604 827 540 866 604 b 1099 476 1099 604 1114 568 l 1000 0 l 1171 0 l 1273 493 b 1079 737 1311 672 1264 737 b 826 608 983 737 880 709 l 820 608 b 635 737 823 713 725 737 b 386 623 545 737 445 716 l 381 623 l 404 729 l 238 729 "},"8":{"x_min":133.140625,"x_max":1035.328125,"ha":979,"o":"m 575 456 b 758 306 765 456 785 438 b 513 155 732 183 702 155 b 330 306 323 155 303 176 b 575 456 356 430 383 456 m 479 -8 b 943 306 740 -8 882 15 b 816 534 970 436 945 515 l 818 540 b 1023 772 959 566 996 643 b 699 1050 1085 1063 891 1050 b 258 772 460 1050 310 1018 b 376 540 231 638 243 569 l 375 534 b 146 306 221 516 170 422 b 479 -8 82 1 259 -8 m 607 608 b 444 772 464 608 410 608 b 666 886 466 877 501 886 b 838 772 810 886 863 887 b 607 608 803 601 750 608 "},"ž":{"x_min":31,"x_max":767,"ha":660,"o":"m 735 583 l 767 729 l 213 729 l 184 595 l 535 595 l 62 150 l 31 0 l 614 0 l 641 133 l 256 133 l 735 583 m 492 811 l 765 961 l 746 1030 l 519 943 l 328 1030 l 281 961 l 492 811 "},"R":{"x_min":82.625,"x_max":1080.171875,"ha":1003,"o":"m 651 344 b 749 194 745 343 767 281 l 708 0 l 905 0 l 945 194 b 821 430 975 341 958 418 l 823 436 b 1065 729 1001 462 1032 575 b 820 1041 1114 965 1043 1036 l 299 1041 l 82 0 l 278 0 l 350 344 l 651 344 m 386 515 l 459 870 l 731 870 b 862 697 872 870 892 844 b 644 515 830 544 789 515 l 386 515 "},"á":{"x_min":95.640625,"x_max":825.125,"ha":818,"o":"m 454 327 b 590 223 539 327 612 325 b 409 111 569 119 500 111 b 276 223 294 111 254 120 b 454 327 298 327 367 327 m 544 0 l 716 0 l 811 456 b 545 737 861 701 774 737 b 193 516 382 737 238 729 l 364 516 b 521 618 385 611 446 618 b 639 458 664 618 664 576 l 620 363 l 615 363 b 417 447 590 445 505 447 b 104 223 241 447 141 398 b 324 -8 64 26 162 -8 b 566 91 407 -8 511 -5 l 570 91 l 544 0 m 732 1031 l 458 870 l 480 798 l 769 918 l 732 1031 "},"×":{"x_min":101,"x_max":859,"ha":811,"o":"m 498 487 l 313 729 l 200 633 l 385 392 l 101 155 l 174 58 l 458 298 l 646 58 l 758 149 l 570 392 l 859 635 l 786 729 l 498 487 "},"o":{"x_min":109.875,"x_max":835.265625,"ha":808,"o":"m 550 737 b 136 363 252 737 194 647 b 394 -8 77 81 96 -8 b 808 363 693 -8 750 81 b 550 737 867 647 848 737 m 521 604 b 635 362 674 604 678 559 b 422 125 596 168 574 125 b 306 362 269 125 267 168 b 521 604 348 559 369 604 "},"5":{"x_min":143.125,"x_max":1043.5625,"ha":979,"o":"m 472 890 l 1012 890 l 1043 1041 l 332 1041 l 216 486 l 388 486 b 592 555 419 555 492 555 b 753 354 768 555 791 533 b 507 155 717 173 685 155 b 340 300 384 155 310 155 l 155 300 b 458 -8 105 29 209 -8 b 940 358 760 -8 872 33 b 681 719 994 619 945 719 b 422 633 601 719 483 712 l 419 633 l 472 890 "},"õ":{"x_min":109.875,"x_max":853.671875,"ha":808,"o":"m 550 737 b 136 364 252 737 194 647 b 394 -7 77 82 96 -7 b 808 364 693 -7 750 82 b 550 737 867 647 848 737 m 521 604 b 635 362 674 604 678 560 b 422 125 596 168 574 125 b 306 362 269 125 267 168 b 521 604 348 560 369 604 m 780 978 b 690 915 757 949 725 915 b 497 995 634 915 569 995 b 316 876 420 995 363 939 l 393 828 b 479 886 416 860 439 886 b 671 810 535 886 592 810 b 853 931 748 810 806 867 l 780 978 "},"7":{"x_min":218,"x_max":1062,"ha":979,"o":"m 1062 1041 l 305 1041 l 269 870 l 840 870 l 218 0 l 429 0 l 1022 850 l 1062 1041 "},"K":{"x_min":90,"x_max":1175,"ha":993,"o":"m 502 1041 l 306 1041 l 90 0 l 286 0 l 378 445 l 469 445 l 752 0 l 1000 0 l 656 533 l 1175 1041 l 934 1041 l 505 616 l 414 616 l 502 1041 "},",":{"x_min":84,"x_max":345,"ha":489,"o":"m 84 -175 l 117 -175 b 311 23 263 -175 285 -95 l 345 187 l 173 187 l 134 0 l 202 0 b 101 -93 185 -77 151 -93 l 84 -175 "},"d":{"x_min":106.453125,"x_max":939.546875,"ha":824,"o":"m 505 604 b 629 386 653 604 661 541 b 405 125 593 212 581 125 b 307 386 249 125 273 220 b 505 604 345 569 386 604 m 551 0 l 723 0 l 939 1041 l 768 1041 l 683 631 l 676 631 b 483 737 657 720 570 737 b 136 386 238 737 181 600 b 328 -8 90 162 62 -8 b 576 109 429 -8 512 13 l 581 109 l 551 0 "},"¨":{"x_min":278,"x_max":716.09375,"ha":629,"o":"m 303 965 l 278 843 l 412 843 l 438 965 l 303 965 m 581 965 l 555 843 l 690 843 l 716 965 l 581 965 "},"Ô":{"x_min":112.859375,"x_max":1077.828125,"ha":993,"o":"m 703 1050 b 191 669 379 1050 259 993 l 134 388 b 483 -8 62 47 167 -8 b 1001 388 792 -8 932 55 l 1059 669 b 703 1050 1129 1004 997 1050 m 668 879 b 863 669 842 879 908 865 l 806 388 b 518 162 763 187 697 162 b 330 388 322 162 286 181 l 387 669 b 668 879 427 834 457 879 m 767 1343 l 493 1193 l 511 1123 l 739 1211 l 930 1123 l 979 1193 l 767 1343 "},"E":{"x_min":76,"x_max":992,"ha":860,"o":"m 453 870 l 956 870 l 992 1041 l 292 1041 l 76 0 l 779 0 l 815 170 l 307 170 l 364 447 l 842 447 l 877 611 l 399 611 l 453 870 "},"Y":{"x_min":201,"x_max":1143,"ha":931,"o":"m 1143 1041 l 917 1041 l 578 597 l 573 597 l 424 1041 l 201 1041 l 436 400 l 353 0 l 549 0 l 632 400 l 1143 1041 "},"\"":{"x_min":248,"x_max":793.921875,"ha":658,"o":"m 284 1041 l 248 861 l 267 681 l 340 681 l 435 861 l 472 1041 l 284 1041 m 606 1041 l 569 861 l 588 681 l 661 681 l 757 861 l 793 1041 l 606 1041 "},"‹":{"x_min":148,"x_max":504.875,"ha":451,"o":"m 404 749 l 148 382 l 266 18 l 391 88 l 297 382 l 504 682 l 404 749 "},"˙":{"x_min":278,"x_max":439,"ha":346,"o":"m 439 965 l 303 965 l 278 843 l 413 843 l 439 965 "},"ê":{"x_min":108.296875,"x_max":819.734375,"ha":792,"o":"m 595 231 b 412 125 574 123 507 125 b 298 331 258 125 265 175 l 789 331 b 540 737 854 650 834 737 b 131 362 251 737 186 623 b 385 -8 73 80 111 -8 b 767 231 589 -8 719 2 l 595 231 m 321 443 b 511 604 348 572 363 604 b 640 443 651 604 672 593 l 321 443 m 602 1030 l 329 880 l 347 811 l 575 898 l 764 811 l 813 880 l 602 1030 "},"Ï":{"x_min":90,"x_max":633.03125,"ha":383,"o":"m 502 1041 l 306 1041 l 90 0 l 285 0 l 502 1041 m 220 1277 l 194 1155 l 329 1155 l 355 1277 l 220 1277 m 498 1277 l 472 1155 l 607 1155 l 633 1277 l 498 1277 "},"„":{"x_min":26,"x_max":547,"ha":589,"o":"m 26 -175 l 60 -175 b 253 23 205 -175 227 -95 l 287 187 l 115 187 l 76 0 l 144 0 b 43 -93 128 -77 94 -93 l 26 -175 m 285 -175 l 319 -175 b 513 23 465 -175 487 -95 l 547 187 l 375 187 l 336 0 l 404 0 b 303 -93 387 -77 353 -93 l 285 -175 "},"Â":{"x_min":-4,"x_max":974.984375,"ha":985,"o":"m 744 197 l 770 0 l 969 0 l 840 1041 l 551 1041 l -4 0 l 198 0 l 303 197 l 744 197 m 732 348 l 379 348 l 667 888 l 670 888 l 732 348 m 763 1343 l 490 1193 l 507 1123 l 735 1211 l 925 1123 l 974 1193 l 763 1343 "},"Í":{"x_min":90,"x_max":595,"ha":383,"o":"m 502 1041 l 306 1041 l 90 0 l 286 0 l 502 1041 m 558 1344 l 284 1183 l 306 1111 l 595 1230 l 558 1344 "},"´":{"x_min":283,"x_max":593.328125,"ha":515,"o":"m 556 1032 l 283 871 l 304 799 l 593 918 l 556 1032 "},"ì":{"x_min":75,"x_max":492.96875,"ha":328,"o":"m 399 729 l 227 729 l 75 0 l 246 0 l 399 729 m 287 1031 l 201 918 l 441 798 l 492 870 l 287 1031 "},"±":{"x_min":68,"x_max":840,"ha":811,"o":"m 484 729 l 445 541 l 181 541 l 152 408 l 416 408 l 378 220 l 509 220 l 547 408 l 811 408 l 840 541 l 575 541 l 615 729 l 484 729 m 68 0 l 726 0 l 754 133 l 95 133 l 68 0 "},"Ú":{"x_min":139.40625,"x_max":1154.578125,"ha":1047,"o":"m 958 1041 l 804 301 b 546 162 781 188 727 162 b 347 301 356 162 325 194 l 501 1041 l 305 1041 l 151 301 b 510 -8 90 9 271 -8 b 1000 301 758 -8 940 11 l 1154 1041 l 958 1041 m 883 1344 l 610 1183 l 631 1111 l 920 1230 l 883 1344 "},"|":{"x_min":385.1875,"x_max":510.421875,"ha":690,"o":"m 385 1201 l 385 -400 l 510 -400 l 510 1201 l 385 1201 "},"§":{"x_min":73.5,"x_max":1023.5,"ha":979,"o":"m 685 472 b 790 352 797 443 806 430 b 686 226 777 291 753 226 b 616 240 668 226 633 236 l 420 288 b 330 406 334 309 312 322 b 442 531 344 468 366 531 b 519 516 464 531 499 522 l 685 472 m 91 1 l 87 -20 b 414 -323 29 -302 154 -323 b 876 -36 651 -323 817 -320 b 825 165 895 51 907 136 l 826 168 b 968 386 915 195 950 302 b 782 611 1005 561 922 576 l 566 663 b 457 788 468 687 437 693 b 667 886 472 865 498 886 b 826 743 835 886 848 870 l 1003 743 l 1012 781 b 701 1050 1065 1041 927 1050 b 271 788 456 1050 321 1030 b 305 586 253 705 243 627 b 153 386 199 562 171 473 b 289 155 118 225 147 188 l 607 80 b 690 -36 681 63 709 51 b 450 -159 670 -136 630 -159 b 269 1 243 -159 245 -129 l 91 1 "},"Ý":{"x_min":201,"x_max":1143,"ha":931,"o":"m 1143 1041 l 917 1041 l 578 597 l 574 597 l 424 1041 l 201 1041 l 436 400 l 353 0 l 549 0 l 632 400 l 1143 1041 m 850 1344 l 576 1183 l 598 1111 l 887 1230 l 850 1344 "},"b":{"x_min":78.71875,"x_max":848.953125,"ha":825,"o":"m 547 604 b 654 386 665 604 692 569 b 447 125 620 220 604 125 b 330 386 272 125 295 212 b 547 604 363 541 398 604 m 78 0 l 250 0 l 266 109 l 272 109 b 470 -8 295 13 370 -8 b 826 386 736 -8 779 162 b 625 737 870 600 870 737 b 389 631 538 737 443 720 l 382 631 l 466 1041 l 295 1041 l 78 0 "},"q":{"x_min":110.296875,"x_max":880.46875,"ha":829,"o":"m 510 604 b 636 386 658 604 669 541 b 410 125 601 212 586 125 b 312 386 254 125 278 220 b 510 604 350 569 391 604 m 880 729 l 708 729 l 692 619 l 687 619 b 488 737 662 715 589 737 b 133 343 223 737 179 566 b 333 -8 88 129 88 -8 b 570 97 420 -8 514 8 l 576 97 l 491 -315 l 662 -315 l 880 729 "},"Ω":{"x_min":75.796875,"x_max":1268.671875,"ha":1269,"o":"m 350 127 l 103 127 l 75 0 l 518 0 l 538 97 b 377 523 420 162 334 313 b 814 908 422 740 602 908 b 1084 530 1036 908 1123 716 b 745 97 1036 301 889 168 l 725 0 l 1166 0 l 1193 127 l 941 127 l 941 131 b 1258 558 1074 209 1216 352 b 840 1036 1310 802 1160 1036 b 214 554 535 1036 270 825 b 350 131 172 352 254 209 l 350 127 "},"Ö":{"x_min":112.859375,"x_max":1077.828125,"ha":993,"o":"m 703 1050 b 191 669 379 1050 259 993 l 134 388 b 483 -8 62 47 167 -8 b 1001 388 792 -8 932 55 l 1059 669 b 703 1050 1129 1004 997 1050 m 668 879 b 863 669 842 879 908 865 l 806 388 b 518 162 763 187 697 162 b 330 388 322 162 286 181 l 387 669 b 668 879 427 834 457 879 m 547 1277 l 521 1155 l 656 1155 l 682 1277 l 547 1277 m 825 1277 l 799 1155 l 934 1155 l 959 1277 l 825 1277 "},"ﬂ":{"x_min":120,"x_max":941,"ha":828,"o":"m 941 1041 l 769 1041 l 552 0 l 724 0 l 941 1041 m 618 729 l 444 729 l 452 773 b 597 908 471 863 482 912 l 649 908 l 676 1041 l 565 1041 b 284 793 377 1041 321 968 l 272 729 l 171 729 l 143 595 l 243 595 l 120 0 l 291 0 l 415 595 l 589 595 l 618 729 "},"z":{"x_min":31,"x_max":767,"ha":660,"o":"m 735 583 l 767 729 l 213 729 l 184 595 l 535 595 l 62 150 l 31 0 l 614 0 l 641 133 l 256 133 l 735 583 "},"™":{"x_min":291,"x_max":1481,"ha":1389,"o":"m 1481 1041 l 1287 1041 l 1095 709 l 1039 1041 l 846 1041 l 730 480 l 850 480 l 944 933 l 947 933 l 1012 480 l 1083 480 l 1336 933 l 1339 933 l 1245 480 l 1365 480 l 1481 1041 m 779 1041 l 312 1041 l 291 933 l 458 933 l 364 480 l 496 480 l 590 933 l 758 933 l 779 1041 "},"ã":{"x_min":95.640625,"x_max":857.59375,"ha":818,"o":"m 454 328 b 590 223 539 328 612 325 b 409 111 569 119 500 111 b 276 223 294 111 254 121 b 454 328 298 328 367 328 m 544 0 l 716 0 l 811 457 b 545 737 861 701 774 737 b 193 517 382 737 238 729 l 364 517 b 521 618 385 611 446 618 b 639 458 664 618 664 576 l 620 364 l 615 364 b 417 447 590 446 505 447 b 104 223 241 447 141 398 b 324 -7 64 26 162 -7 b 566 92 407 -7 511 -5 l 570 92 l 544 0 m 784 978 b 694 915 760 949 729 915 b 500 995 638 915 573 995 b 319 876 424 995 367 939 l 397 828 b 483 886 420 860 443 886 b 675 810 539 886 596 810 b 857 931 752 810 809 867 l 784 978 "},"æ":{"x_min":88.671875,"x_max":1300.703125,"ha":1278,"o":"m 802 443 b 992 604 829 572 844 604 b 1121 443 1132 604 1153 593 l 802 443 m 447 327 b 583 223 532 327 605 325 b 402 111 562 119 494 111 b 269 223 287 111 247 120 b 447 327 291 327 360 327 m 612 361 l 607 361 b 411 447 583 445 498 447 b 97 223 234 447 134 398 b 317 -8 57 26 155 -8 b 627 106 435 -8 567 -4 l 631 106 b 866 -8 645 0 772 -8 b 1248 231 1070 -8 1200 2 l 1076 231 b 893 125 1055 123 988 125 b 778 331 739 125 746 175 l 1270 331 b 1021 737 1335 650 1315 737 b 766 643 950 737 817 733 l 762 643 b 539 737 758 741 593 737 b 186 516 375 737 231 729 l 357 516 b 514 618 378 611 439 618 b 633 458 657 618 657 576 l 612 361 "},"®":{"x_min":116.40625,"x_max":1176.75,"ha":1097,"o":"m 536 -8 b 1165 520 821 -8 1104 229 b 757 1050 1225 812 1041 1050 b 128 520 469 1050 188 812 b 536 -8 67 229 249 -8 m 557 91 b 226 520 323 91 176 281 b 735 950 275 759 501 950 b 1067 520 968 950 1116 759 b 557 91 1017 281 789 91 m 759 475 b 946 645 859 481 920 523 b 762 804 974 783 874 804 l 491 804 l 373 233 l 482 233 l 532 475 l 642 475 l 717 233 l 844 233 l 759 475 m 548 558 l 582 720 l 718 720 b 837 645 773 720 853 722 b 713 558 822 573 776 558 l 548 558 "},"É":{"x_min":76,"x_max":992,"ha":860,"o":"m 453 870 l 956 870 l 992 1041 l 292 1041 l 76 0 l 779 0 l 815 170 l 307 170 l 364 447 l 842 447 l 877 611 l 399 611 l 453 870 m 817 1344 l 544 1183 l 565 1111 l 854 1230 l 817 1344 "},"~":{"x_min":132,"x_max":826.171875,"ha":811,"o":"m 713 479 b 636 391 707 445 687 391 b 562 418 616 391 592 397 l 435 500 b 364 523 411 515 387 523 b 132 304 249 523 152 411 l 244 304 b 317 394 254 336 277 394 b 375 375 332 394 353 388 l 521 291 b 622 262 559 269 592 262 b 826 479 717 262 807 381 l 713 479 "},"³":{"x_min":162.53125,"x_max":712.453125,"ha":588,"o":"m 379 687 l 468 687 b 528 600 535 687 540 661 b 383 525 513 526 484 525 b 303 630 287 525 283 527 l 174 630 b 362 416 131 423 208 416 b 657 600 518 416 620 427 b 566 737 673 681 649 730 l 566 740 b 707 886 651 748 691 812 b 494 1050 740 1048 609 1050 b 225 843 332 1050 263 1023 l 355 843 b 471 941 373 930 389 941 b 578 886 565 941 587 936 b 491 795 561 811 548 795 l 403 795 l 379 687 "},"¡":{"x_min":48,"x_max":448,"ha":429,"o":"m 448 727 l 276 727 l 235 537 l 407 537 l 448 727 m 48 -313 l 241 -313 l 374 379 l 203 379 l 48 -313 "},"[":{"x_min":37,"x_max":615.1875,"ha":483,"o":"m 299 1050 l 37 -208 l 352 -208 l 383 -56 l 253 -56 l 453 898 l 583 898 l 615 1050 l 299 1050 "},"L":{"x_min":90,"x_max":798,"ha":785,"o":"m 502 1041 l 306 1041 l 90 0 l 762 0 l 798 170 l 321 170 l 502 1041 "}," ":{"x_min":0,"x_max":0,"ha":489},"∑":{"x_min":246.078125,"x_max":1119.953125,"ha":1175,"o":"m 1119 -141 l 1119 1 l 470 1 l 470 6 l 865 452 l 500 872 l 500 877 l 1091 877 l 1091 1016 l 266 1016 l 266 908 l 673 433 l 246 -44 l 246 -141 l 1119 -141 "},"%":{"x_min":169.125,"x_max":1279.875,"ha":1257,"o":"m 1271 333 b 1084 520 1303 500 1244 520 b 828 331 926 520 867 498 l 796 179 b 975 -8 766 12 816 -8 b 1239 180 1133 -8 1201 13 l 1271 333 m 1126 195 b 996 97 1106 98 1080 97 b 916 195 912 97 895 98 l 943 325 b 1063 415 962 415 978 415 b 1154 325 1154 415 1173 415 l 1126 195 m 652 862 b 465 1050 684 1029 625 1050 b 209 861 307 1050 248 1027 l 177 708 b 356 520 147 541 197 520 b 620 709 514 520 582 543 l 652 862 m 507 725 b 377 626 487 627 461 626 b 297 725 293 626 276 627 l 324 854 b 444 944 343 944 359 944 b 535 854 535 944 554 944 l 507 725 m 1224 1041 l 1095 1041 l 234 0 l 361 0 l 1224 1041 "},"P":{"x_min":76.125,"x_max":1053.515625,"ha":953,"o":"m 76 0 l 272 0 l 342 337 l 598 337 b 1034 683 865 337 973 388 b 744 1041 1094 975 1018 1041 l 292 1041 l 76 0 m 378 508 l 453 870 l 709 870 b 838 683 856 872 868 830 b 634 508 807 537 774 511 l 378 508 "},"∏":{"x_min":247.71875,"x_max":1365.203125,"ha":1429,"o":"m 1365 876 l 1365 1018 l 247 1018 l 247 876 l 432 876 l 432 -140 l 596 -140 l 596 876 l 1016 876 l 1016 -140 l 1180 -140 l 1180 876 l 1365 876 "},"À":{"x_min":-4,"x_max":969,"ha":985,"o":"m 744 197 l 770 0 l 969 0 l 839 1041 l 551 1041 l -4 0 l 198 0 l 303 197 l 744 197 m 732 348 l 379 348 l 666 888 l 669 888 l 732 348 m 700 1344 l 615 1230 l 854 1111 l 906 1183 l 700 1344 "},"_":{"x_min":-37,"x_max":659,"ha":694,"o":"m 659 -104 l -22 -104 l -37 -173 l 644 -173 l 659 -104 "},"ñ":{"x_min":84.203125,"x_max":864.109375,"ha":831,"o":"m 236 729 l 84 0 l 255 0 l 338 401 b 551 604 365 532 401 604 b 655 462 661 604 677 568 l 559 0 l 730 0 l 831 480 b 639 737 868 658 827 737 b 390 619 538 737 450 726 l 385 619 l 408 729 l 236 729 m 790 978 b 700 915 767 949 736 915 b 507 995 644 915 579 995 b 326 876 431 995 374 939 l 404 828 b 489 886 427 860 450 886 b 681 810 545 886 602 810 b 864 931 759 810 816 867 l 790 978 "},"+":{"x_min":136,"x_max":822,"ha":811,"o":"m 484 729 l 427 459 l 163 459 l 136 326 l 400 326 l 344 56 l 474 56 l 530 326 l 794 326 l 822 459 l 557 459 l 615 729 l 484 729 "},"‚":{"x_min":26,"x_max":287,"ha":350,"o":"m 26 -175 l 59 -175 b 253 23 205 -175 227 -95 l 287 187 l 115 187 l 76 0 l 144 0 b 43 -93 127 -77 93 -93 l 26 -175 "},"½":{"x_min":231.421875,"x_max":1470.09375,"ha":1468,"o":"m 1306 1041 l 1177 1041 l 315 0 l 442 0 l 1306 1041 m 626 1041 l 465 1041 l 231 853 l 281 772 l 475 935 l 367 416 l 496 416 l 626 1041 m 1395 108 l 1063 108 l 1065 126 b 1212 221 1082 207 1110 204 b 1461 432 1370 247 1427 266 b 1278 625 1495 597 1422 625 b 993 397 1053 625 1024 550 l 1122 397 b 1256 523 1148 522 1169 523 b 1332 432 1328 523 1348 511 b 1174 308 1309 318 1287 330 b 933 114 1033 285 967 273 l 910 0 l 1372 0 l 1395 108 "},"Æ":{"x_min":-23,"x_max":1604,"ha":1471,"o":"m 766 348 l 420 348 l 773 870 l 875 870 l 766 348 m 694 0 l 1387 0 l 1422 170 l 925 170 l 984 452 l 1451 452 l 1482 604 l 1015 604 l 1071 870 l 1568 870 l 1604 1041 l 675 1041 l -23 0 l 192 0 l 326 197 l 735 197 l 694 0 "},"Ë":{"x_min":76,"x_max":992,"ha":860,"o":"m 453 870 l 956 870 l 992 1041 l 292 1041 l 76 0 l 779 0 l 815 170 l 307 170 l 364 447 l 842 447 l 877 611 l 399 611 l 453 870 m 481 1277 l 455 1155 l 590 1155 l 616 1277 l 481 1277 m 759 1277 l 733 1155 l 868 1155 l 894 1277 l 759 1277 "},"'":{"x_min":248,"x_max":472.578125,"ha":331,"o":"m 284 1041 l 248 861 l 267 681 l 340 681 l 435 861 l 472 1041 l 284 1041 "},"Š":{"x_min":92.703125,"x_max":1023.453125,"ha":935,"o":"m 114 331 l 103 283 b 471 -8 42 -15 245 -8 b 935 309 734 -8 875 16 b 598 611 991 575 909 591 b 404 755 401 623 376 627 b 657 886 427 866 462 886 b 815 769 795 886 839 881 l 808 736 l 1005 736 l 1012 769 b 691 1050 1069 1043 900 1050 b 208 755 446 1050 266 1041 b 537 447 144 452 321 461 b 739 309 688 438 770 458 b 505 155 714 188 683 155 b 299 283 323 155 274 163 l 310 331 l 114 331 m 692 1123 l 967 1273 l 948 1343 l 720 1255 l 529 1343 l 481 1273 l 692 1123 "},"ª":{"x_min":228.34375,"x_max":685.859375,"ha":611,"o":"m 503 604 l 617 604 l 680 898 b 510 1050 707 1034 631 1050 b 285 912 412 1050 314 1050 l 402 912 b 493 973 412 970 446 973 b 560 891 578 973 571 937 l 549 836 l 546 836 b 428 875 534 875 469 875 b 233 737 327 875 257 850 b 368 598 209 623 267 598 b 512 650 423 598 473 598 l 515 647 l 503 604 m 424 675 b 352 744 365 675 338 677 b 448 798 363 798 402 798 b 531 741 508 798 541 793 b 424 675 518 682 481 675 "},"Œ":{"x_min":115.421875,"x_max":1666.546875,"ha":1535,"o":"m 528 162 b 334 402 312 162 287 180 l 392 683 b 678 879 421 825 456 879 b 889 641 904 879 934 852 l 838 400 b 528 162 796 195 755 162 m 1132 870 l 1631 870 l 1666 1041 l 984 1041 l 964 923 l 960 923 b 686 1050 934 1048 784 1050 b 196 683 400 1050 253 961 l 138 402 b 466 -8 72 91 139 -8 b 791 112 593 -8 704 2 l 795 112 l 768 0 l 1454 0 l 1489 170 l 987 170 l 1045 452 l 1518 452 l 1549 604 l 1077 604 l 1132 870 "},"˛":{"x_min":68.046875,"x_max":325.03125,"ha":435,"o":"m 206 5 b 70 -147 142 -30 85 -77 b 190 -270 54 -229 118 -270 b 269 -255 216 -270 243 -263 l 288 -165 b 218 -181 262 -176 243 -181 b 165 -126 184 -181 157 -163 b 322 -5 175 -79 267 -29 l 325 5 l 206 5 "},"ð":{"x_min":109.84375,"x_max":942.34375,"ha":808,"o":"m 521 604 b 635 362 674 604 678 559 b 422 124 596 168 574 124 b 306 362 269 124 267 168 b 521 604 348 559 369 604 m 456 1008 b 552 918 499 976 526 948 l 363 862 l 424 787 l 608 841 b 661 680 634 795 653 741 b 479 738 611 736 532 738 b 136 363 241 738 183 595 b 394 -8 77 81 96 -8 b 813 391 693 -8 750 93 b 755 884 851 576 844 734 l 942 938 l 883 1015 l 699 961 b 600 1049 674 993 641 1023 l 456 1008 "},"T":{"x_min":184,"x_max":1014,"ha":815,"o":"m 679 870 l 978 870 l 1014 1041 l 219 1041 l 184 870 l 483 870 l 302 0 l 498 0 l 679 870 "},"š":{"x_min":94.28125,"x_max":822.171875,"ha":774,"o":"m 800 530 b 536 737 842 734 676 737 b 168 533 352 737 209 733 b 431 306 129 347 169 311 b 587 208 603 304 601 272 b 405 111 567 108 507 111 b 276 229 279 111 257 123 l 104 229 b 381 -8 55 -8 186 -8 b 759 208 562 -8 719 11 b 488 440 808 444 656 431 b 338 522 340 447 323 450 b 511 618 358 618 420 618 b 628 530 602 618 647 618 l 800 530 m 548 811 l 822 961 l 803 1030 l 575 943 l 385 1030 l 338 961 l 548 811 "},"℮":{"x_min":268.484375,"x_max":1419.984375,"ha":1499,"o":"m 1419 505 l 1419 520 b 842 1050 1419 812 1162 1050 b 268 520 525 1050 268 812 b 842 -6 268 229 525 -6 b 1298 197 1029 -6 1196 73 l 1215 197 b 844 22 1125 91 993 22 b 491 179 706 22 582 83 b 479 211 484 188 479 198 l 479 500 b 487 505 479 504 482 505 l 1419 505 m 1209 543 b 1202 534 1209 540 1206 534 l 487 534 b 479 543 482 534 479 540 l 479 826 b 493 862 479 841 484 854 b 844 1018 584 956 708 1018 b 1194 868 981 1018 1104 958 b 1209 833 1203 858 1209 845 l 1209 543 "},"Þ":{"x_min":76.515625,"x_max":1018.515625,"ha":953,"o":"m 76 0 l 272 0 l 307 168 l 563 168 b 999 513 830 168 938 219 b 709 872 1059 805 983 872 l 453 872 l 488 1041 l 292 1041 l 76 0 m 343 338 l 418 701 l 674 701 b 803 513 822 702 833 661 b 599 338 772 368 739 341 l 343 338 "},"j":{"x_min":-68,"x_max":456,"ha":313,"o":"m 392 729 l 220 729 l 61 -33 b -42 -122 50 -84 34 -122 l -68 -247 b -5 -255 -47 -252 -27 -255 b 235 -16 151 -255 206 -158 l 392 729 m 456 1041 l 284 1041 l 254 893 l 426 893 l 456 1041 "},"1":{"x_min":259,"x_max":886,"ha":979,"o":"m 886 1041 l 650 1041 l 259 727 l 344 604 l 667 875 l 484 0 l 669 0 l 886 1041 "},"›":{"x_min":88,"x_max":451.171875,"ha":451,"o":"m 349 749 l 218 682 l 301 382 l 88 88 l 181 18 l 451 382 l 349 749 "},"ı":{"x_min":75,"x_max":399,"ha":328,"o":"m 399 729 l 227 729 l 75 0 l 246 0 l 399 729 "},"ℓ":{"x_min":104.6875,"x_max":877.84375,"ha":869,"o":"m 796 279 b 534 129 736 206 635 129 b 404 309 449 129 382 188 l 410 344 b 869 877 663 526 831 690 b 692 1131 898 1011 852 1131 b 336 751 544 1131 394 1031 l 258 381 b 104 283 209 348 157 318 l 134 194 b 236 258 168 215 204 238 b 234 244 235 254 234 248 b 469 -2 227 108 291 -2 b 856 208 603 -2 740 59 l 796 279 m 502 784 b 675 1019 540 963 619 1019 b 750 873 751 1019 767 958 b 440 490 724 750 598 618 l 502 784 "},"ä":{"x_min":95.640625,"x_max":825.125,"ha":818,"o":"m 454 327 b 590 223 539 327 612 325 b 409 111 569 119 500 111 b 276 223 294 111 254 120 b 454 327 298 327 367 327 m 544 0 l 716 0 l 811 456 b 545 737 861 701 774 737 b 193 516 382 737 238 729 l 364 516 b 521 618 385 611 446 618 b 639 458 664 618 664 576 l 620 363 l 615 363 b 417 447 590 445 505 447 b 104 223 241 447 141 398 b 324 -8 64 26 162 -8 b 566 91 407 -8 511 -5 l 570 91 l 544 0 m 396 965 l 370 843 l 505 843 l 530 965 l 396 965 m 673 965 l 647 843 l 782 843 l 808 965 l 673 965 "},"<":{"x_min":140,"x_max":879,"ha":811,"o":"m 140 344 l 738 56 l 767 195 l 334 392 l 849 590 l 879 729 l 160 441 l 140 344 "},"£":{"x_min":95.390625,"x_max":1085.03125,"ha":979,"o":"m 771 544 l 498 544 l 537 733 b 744 886 566 869 611 886 b 886 758 888 886 906 858 l 876 713 l 1061 713 l 1071 758 b 762 1050 1128 1033 1003 1050 b 348 711 501 1050 403 983 l 313 544 l 179 544 l 148 393 l 281 393 l 265 316 b 129 163 247 241 219 172 l 95 0 l 922 0 l 958 168 l 343 159 l 344 163 b 454 334 426 204 438 252 l 466 393 l 740 393 l 771 544 "},"¹":{"x_min":244,"x_max":640,"ha":588,"o":"m 640 1049 l 479 1049 l 244 861 l 294 780 l 487 943 l 380 424 l 509 424 l 640 1049 "},"t":{"x_min":121,"x_max":684.890625,"ha":590,"o":"m 121 595 l 211 595 l 133 220 b 331 -8 95 36 142 -8 b 627 279 516 -8 584 58 l 476 279 b 358 125 460 202 454 125 b 305 222 286 125 292 155 l 382 595 l 656 595 l 684 729 l 411 729 l 445 894 l 273 894 l 239 729 l 149 729 l 121 595 "},"¬":{"x_min":165,"x_max":851,"ha":811,"o":"m 631 168 l 762 168 l 851 595 l 192 595 l 165 462 l 693 462 l 631 168 "},"ù":{"x_min":119.640625,"x_max":873.828125,"ha":824,"o":"m 721 0 l 873 729 l 702 729 l 613 308 b 401 125 588 181 533 125 b 311 269 291 125 289 165 l 408 729 l 236 729 l 126 201 b 322 -8 93 41 179 -8 b 573 112 420 -8 513 15 l 578 112 l 555 0 l 721 0 m 475 1031 l 389 918 l 628 798 l 680 870 l 475 1031 "},"W":{"x_min":211.546875,"x_max":1736,"ha":1546,"o":"m 1135 163 l 1131 163 l 1085 1041 l 859 1041 l 442 163 l 437 163 l 407 1041 l 211 1041 l 260 0 l 540 0 l 917 794 l 923 794 l 961 0 l 1244 0 l 1736 1041 l 1538 1041 l 1135 163 "},"ï":{"x_min":75,"x_max":569.03125,"ha":328,"o":"m 398 729 l 227 729 l 75 0 l 246 0 l 398 729 m 156 965 l 130 843 l 265 843 l 291 965 l 156 965 m 434 965 l 408 843 l 543 843 l 569 965 l 434 965 "},">":{"x_min":80,"x_max":819,"ha":811,"o":"m 819 441 l 220 729 l 190 590 l 623 392 l 108 195 l 80 56 l 798 344 l 819 441 "},"v":{"x_min":146,"x_max":829,"ha":682,"o":"m 829 729 l 649 729 l 365 119 l 360 119 l 321 729 l 146 729 l 209 0 l 468 0 l 829 729 "},"û":{"x_min":119.640625,"x_max":873.828125,"ha":824,"o":"m 721 0 l 873 729 l 702 729 l 613 308 b 401 125 588 181 533 125 b 311 269 291 125 289 165 l 408 729 l 236 729 l 126 201 b 322 -8 93 41 179 -8 b 573 112 420 -8 513 15 l 578 112 l 555 0 l 721 0 m 592 1030 l 318 880 l 336 811 l 564 898 l 754 811 l 803 880 l 592 1030 "},"Ò":{"x_min":112.859375,"x_max":1077.828125,"ha":993,"o":"m 703 1050 b 191 669 379 1050 259 993 l 134 388 b 483 -8 62 47 167 -8 b 1001 388 792 -8 932 55 l 1059 669 b 703 1050 1129 1004 997 1050 m 668 879 b 863 669 842 879 908 865 l 806 388 b 518 162 763 187 697 162 b 330 388 322 162 286 181 l 387 669 b 668 879 427 834 457 879 m 677 1344 l 592 1230 l 831 1111 l 883 1183 l 677 1344 "},"&":{"x_min":131.484375,"x_max":1076.84375,"ha":1085,"o":"m 756 218 b 534 155 699 155 632 155 b 329 316 363 155 295 151 b 483 506 355 436 367 488 l 756 218 m 959 0 l 1076 115 l 958 245 b 1019 441 991 306 1006 376 l 1033 512 l 865 512 l 837 372 l 572 659 b 536 783 536 697 523 722 b 702 886 556 883 608 886 b 816 723 845 886 845 865 l 984 723 b 736 1050 1041 1002 993 1050 b 352 784 523 1050 401 1016 b 399 600 333 693 344 659 b 145 316 228 586 178 470 b 500 -8 82 15 237 -8 b 860 106 635 -8 774 -5 l 959 0 "},"˝":{"x_min":274,"x_max":832.03125,"ha":747,"o":"m 494 1057 l 274 821 l 320 767 l 570 969 l 494 1057 m 754 1057 l 533 821 l 581 767 l 832 969 l 754 1057 "},"Ð":{"x_min":55.546875,"x_max":1125.296875,"ha":1047,"o":"m 461 870 l 752 870 b 913 654 902 870 949 827 l 861 408 b 639 170 838 291 771 170 l 315 170 l 375 459 l 613 459 l 646 611 l 408 611 l 461 870 m 212 611 l 88 611 l 55 459 l 179 459 l 84 0 l 604 0 b 1057 408 913 0 1012 191 l 1109 654 b 787 1041 1167 937 1069 1041 l 300 1041 l 212 611 "},"I":{"x_min":90,"x_max":502,"ha":383,"o":"m 502 1041 l 306 1041 l 90 0 l 285 0 l 502 1041 "},"ˉ":{"x_min":280,"x_max":677.4375,"ha":592,"o":"m 301 958 l 280 852 l 655 852 l 677 958 l 301 958 "},"G":{"x_min":108.890625,"x_max":1101.84375,"ha":1010,"o":"m 597 552 l 564 401 l 822 401 l 815 363 b 529 162 774 166 715 162 b 326 402 311 162 283 184 l 375 641 b 679 879 420 843 450 879 b 890 727 849 879 922 880 l 1084 727 b 714 1050 1162 1062 963 1050 b 179 641 398 1050 251 988 l 130 402 b 494 -8 57 50 167 -8 b 1011 363 857 -8 947 55 l 1050 552 l 597 552 "},"`":{"x_min":293,"x_max":584.28125,"ha":515,"o":"m 378 1032 l 293 918 l 532 799 l 584 871 l 378 1032 "},"·":{"x_min":216,"x_max":427,"ha":489,"o":"m 427 488 l 255 488 l 216 298 l 387 298 l 427 488 "},"r":{"x_min":72.140625,"x_max":738.234375,"ha":654,"o":"m 224 729 l 72 0 l 243 0 l 337 450 b 498 604 353 544 396 604 b 562 487 578 604 577 561 l 553 450 l 714 450 l 726 508 b 586 737 755 645 737 737 b 374 633 503 737 424 713 l 367 633 l 392 729 l 224 729 "},"¿":{"x_min":50.8125,"x_max":740.453125,"ha":826,"o":"m 446 393 l 442 369 b 302 241 423 280 381 272 b 63 -30 134 176 96 122 b 323 -323 10 -284 122 -323 b 732 -37 582 -323 681 -279 l 740 0 l 568 0 l 560 -37 b 362 -177 540 -159 502 -177 b 235 -30 238 -177 208 -163 b 413 133 259 87 311 91 b 613 369 553 190 582 220 l 617 393 l 446 393 m 688 729 l 517 729 l 476 538 l 647 538 l 688 729 "},"ý":{"x_min":69,"x_max":819,"ha":674,"o":"m 819 729 l 644 729 l 376 108 l 373 108 l 322 729 l 145 729 l 228 0 l 311 0 b 132 -190 278 -84 240 -190 b 97 -186 120 -190 108 -187 l 69 -318 b 141 -323 93 -319 116 -323 b 475 -29 341 -323 401 -194 l 819 729 m 650 1031 l 376 870 l 398 798 l 686 918 l 650 1031 "},"x":{"x_min":-7,"x_max":815,"ha":694,"o":"m 815 729 l 616 729 l 443 495 l 368 729 l 172 729 l 308 383 l -7 0 l 197 0 l 395 266 l 484 0 l 685 0 l 534 383 l 815 729 "},"è":{"x_min":108.296875,"x_max":819.734375,"ha":792,"o":"m 595 231 b 412 125 574 123 507 125 b 298 331 258 125 265 175 l 789 331 b 540 737 854 650 834 737 b 131 362 251 737 186 623 b 385 -8 73 80 111 -8 b 767 231 589 -8 719 2 l 595 231 m 321 443 b 511 604 348 572 363 604 b 640 443 651 604 672 593 l 321 443 m 514 1031 l 428 918 l 667 798 l 719 870 l 514 1031 "},"º":{"x_min":247.90625,"x_max":696.296875,"ha":611,"o":"m 518 1050 b 263 829 334 1050 298 990 b 424 598 223 634 254 598 b 681 829 615 598 647 668 b 518 1050 719 1011 688 1050 m 499 959 b 564 829 585 959 587 940 b 442 688 545 736 534 688 b 381 829 355 688 355 702 b 499 959 401 930 412 959 "},"Ø":{"x_min":-8,"x_max":1251,"ha":1047,"o":"m 1251 1074 l 1084 948 b 736 1049 1011 1049 865 1049 b 173 537 288 1049 249 899 b 122 192 148 421 113 250 l 24 115 l -8 -35 l 159 90 b 516 -7 228 -7 330 -7 b 1078 537 927 -7 988 105 b 1120 844 1104 659 1129 756 l 1216 918 l 1251 1074 m 912 682 l 879 523 b 551 162 816 225 816 162 b 333 223 467 162 339 162 l 912 682 m 330 353 l 390 640 b 701 879 430 824 475 879 b 912 815 801 879 879 876 l 330 353 "},"∞":{"x_min":219.140625,"x_max":1288.96875,"ha":1394,"o":"m 1288 422 b 1052 676 1288 573 1189 676 b 762 491 916 677 837 576 b 473 676 680 594 592 676 b 219 413 329 676 219 568 b 461 156 219 265 332 156 b 754 343 588 156 672 244 b 1041 156 862 211 948 156 b 1288 420 1167 156 1288 256 l 1288 422 m 472 250 b 314 412 378 250 314 325 b 465 587 314 509 374 587 b 703 411 573 587 638 497 b 475 250 643 343 568 250 l 472 250 m 1041 587 b 1192 413 1129 587 1192 519 b 1046 250 1192 337 1140 250 b 809 419 967 250 909 301 b 1039 587 862 476 940 587 l 1041 587 "},"μ":{"x_min":20,"x_max":875,"ha":824,"o":"m 722 0 l 875 729 l 703 729 l 614 308 b 402 125 589 182 534 125 b 312 269 292 125 290 165 l 409 729 l 237 729 l 20 -314 l 191 -314 l 256 -2 b 323 -8 278 -6 296 -8 b 574 112 421 -8 514 15 l 579 112 l 556 0 l 722 0 "},"÷":{"x_min":136,"x_max":822,"ha":811,"o":"m 136 326 l 794 326 l 822 459 l 163 459 l 136 326 m 329 56 l 489 56 l 523 220 l 363 220 l 329 56 m 435 565 l 596 565 l 630 729 l 469 729 l 435 565 "},"h":{"x_min":84.203125,"x_max":843.6875,"ha":831,"o":"m 472 1041 l 300 1041 l 84 0 l 255 0 l 338 401 b 551 604 365 531 401 604 b 655 462 661 604 677 568 l 559 0 l 730 0 l 831 480 b 639 737 868 658 827 737 b 390 619 538 737 450 726 l 385 619 l 472 1041 "},".":{"x_min":121,"x_max":332,"ha":489,"o":"m 332 190 l 160 190 l 121 0 l 292 0 l 332 190 "},";":{"x_min":84,"x_max":458,"ha":489,"o":"m 84 -175 l 118 -175 b 311 23 263 -175 285 -95 l 345 187 l 173 187 l 134 0 l 202 0 b 101 -93 186 -77 152 -93 l 84 -175 m 458 729 l 286 729 l 245 538 l 417 538 l 458 729 "},"f":{"x_min":120,"x_max":677,"ha":483,"o":"m 618 729 l 444 729 l 452 773 b 598 908 471 863 482 912 l 649 908 l 677 1041 l 565 1041 b 284 793 377 1041 321 968 l 272 729 l 171 729 l 143 595 l 243 595 l 120 0 l 291 0 l 415 595 l 589 595 l 618 729 "},"“":{"x_min":208,"x_max":732,"ha":589,"o":"m 732 1050 l 697 1050 b 504 851 552 1050 530 970 l 470 687 l 642 687 l 681 875 l 613 875 b 714 968 629 952 663 968 l 732 1050 m 469 1050 l 435 1050 b 242 851 289 1050 267 970 l 208 687 l 379 687 l 418 875 l 350 875 b 451 968 367 952 401 968 l 469 1050 "},"A":{"x_min":-4,"x_max":969,"ha":985,"o":"m 744 197 l 770 0 l 969 0 l 839 1041 l 551 1041 l -4 0 l 198 0 l 303 197 l 744 197 m 732 348 l 379 348 l 666 888 l 669 888 l 732 348 "},"6":{"x_min":139.78125,"x_max":1024.75,"ha":979,"o":"m 570 473 b 743 320 735 473 774 469 b 504 156 709 158 675 156 b 340 344 322 156 304 179 b 570 473 365 473 423 473 m 165 400 b 470 -6 92 44 167 -6 b 931 334 763 -6 872 51 b 630 637 987 601 902 637 b 382 537 532 637 432 626 l 379 537 l 413 701 b 657 887 450 876 483 887 b 825 752 800 887 852 884 l 1010 752 b 691 1051 1072 1040 924 1051 b 228 702 420 1051 292 995 l 165 400 "},"‘":{"x_min":208,"x_max":469,"ha":322,"o":"m 469 1050 l 435 1050 b 241 851 289 1050 267 970 l 208 687 l 379 687 l 418 875 l 350 875 b 451 968 367 952 401 968 l 469 1050 "},"π":{"x_min":98.875,"x_max":1122.4375,"ha":1011,"o":"m 1078 629 l 1122 761 l 424 761 b 156 713 283 761 203 743 l 156 611 b 341 629 196 623 249 629 b 98 0 297 447 187 151 l 264 0 b 508 629 347 123 462 445 l 780 629 l 696 220 b 677 0 670 100 665 25 l 842 0 b 869 236 840 44 843 112 l 950 629 l 1078 629 "},"O":{"x_min":112.859375,"x_max":1077.828125,"ha":993,"o":"m 703 1050 b 191 669 379 1050 259 993 l 134 388 b 483 -8 62 47 167 -8 b 1001 388 792 -8 932 55 l 1059 669 b 703 1050 1129 1004 997 1050 m 668 879 b 863 669 842 879 908 865 l 806 388 b 518 162 763 187 697 162 b 330 388 322 162 286 181 l 387 669 b 668 879 427 834 457 879 "},"n":{"x_min":84.203125,"x_max":843.6875,"ha":831,"o":"m 236 729 l 84 0 l 255 0 l 338 401 b 551 604 365 531 401 604 b 655 462 661 604 677 568 l 559 0 l 730 0 l 831 480 b 639 737 868 658 827 737 b 390 619 538 737 450 726 l 385 619 l 408 729 l 236 729 "},"3":{"x_min":133.25,"x_max":1028.828125,"ha":979,"o":"m 153 351 b 465 -8 81 6 207 -8 b 936 301 726 -8 876 13 b 806 529 964 437 944 519 l 807 534 b 1019 777 948 548 993 654 b 686 1050 1074 1048 880 1050 b 237 706 414 1050 300 1006 l 423 706 b 652 886 457 868 483 886 b 833 777 812 886 854 877 b 678 606 807 652 780 606 l 529 606 l 498 455 l 646 455 b 750 301 757 455 773 412 b 499 155 720 156 667 155 b 338 351 328 155 297 158 l 153 351 "},"9":{"x_min":130.84375,"x_max":1032.328125,"ha":979,"o":"m 662 886 b 840 722 816 886 872 877 b 595 570 810 581 774 570 b 425 722 417 570 397 586 b 662 886 455 872 484 886 m 143 291 b 476 -8 82 -2 253 -8 b 937 302 722 -8 883 38 l 1000 604 b 696 1050 1076 963 1032 1050 b 241 722 386 1050 294 980 b 517 406 181 440 299 406 b 793 508 647 406 730 425 l 795 508 l 759 336 b 510 155 722 158 670 155 b 328 291 348 155 300 155 l 143 291 "},"l":{"x_min":86,"x_max":474,"ha":350,"o":"m 474 1041 l 302 1041 l 86 0 l 257 0 l 474 1041 "},"¤":{"x_min":192.15625,"x_max":978.75,"ha":979,"o":"m 782 344 b 858 505 804 374 842 424 b 846 634 871 571 854 606 l 978 744 l 905 838 l 776 730 b 645 769 750 752 701 766 b 488 727 585 771 527 752 l 405 835 l 291 739 l 377 633 b 306 491 343 605 317 549 b 320 348 296 441 295 390 l 192 238 l 262 145 l 395 256 b 520 210 426 227 475 213 b 671 253 595 209 631 235 l 754 147 l 864 237 l 782 344 m 435 483 b 611 635 446 559 523 635 b 724 483 700 635 746 559 b 551 344 716 431 657 344 b 435 483 478 344 425 402 "},"∂":{"x_min":126.140625,"x_max":1004.53125,"ha":960,"o":"m 365 954 b 607 1025 412 983 498 1025 b 828 622 782 1025 877 858 b 815 563 826 606 820 579 l 813 563 b 569 716 797 606 725 716 b 133 344 367 716 178 563 b 401 -4 102 195 164 -4 b 986 591 692 -4 918 268 b 653 1154 1060 947 896 1154 b 335 1065 502 1154 393 1101 l 365 954 m 443 125 b 298 344 331 125 272 223 b 577 591 326 481 450 591 b 767 430 699 591 760 488 b 445 125 716 280 589 125 l 443 125 "},"4":{"x_min":87,"x_max":998,"ha":979,"o":"m 998 1041 l 709 1041 l 131 440 l 87 222 l 642 222 l 596 0 l 781 0 l 827 222 l 947 222 l 978 373 l 859 373 l 998 1041 m 673 373 l 273 373 l 777 897 l 782 897 l 673 373 "},"p":{"x_min":15.953125,"x_max":850.75,"ha":828,"o":"m 450 125 b 324 343 301 125 292 187 b 549 604 360 516 374 604 b 649 343 706 604 683 508 b 450 125 609 159 568 125 m 405 729 l 233 729 l 15 -315 l 187 -315 l 273 97 l 280 97 b 473 -8 297 8 386 -8 b 820 343 718 -8 775 129 b 628 737 867 566 894 737 b 380 619 528 737 443 715 l 375 619 l 405 729 "},"‡":{"x_min":131,"x_max":983,"ha":979,"o":"m 788 1041 l 603 1041 l 535 713 l 273 713 l 242 562 l 503 562 l 423 179 l 162 179 l 131 27 l 392 27 l 321 -315 l 506 -315 l 577 27 l 840 27 l 871 179 l 608 179 l 689 562 l 951 562 l 983 713 l 720 713 l 788 1041 "},"à":{"x_min":95.640625,"x_max":825.125,"ha":818,"o":"m 454 327 b 590 223 539 327 612 325 b 409 111 569 119 500 111 b 276 223 294 111 254 120 b 454 327 298 327 367 327 m 544 0 l 716 0 l 811 456 b 545 737 861 701 774 737 b 193 516 382 737 238 729 l 364 516 b 521 618 385 611 446 618 b 639 458 664 618 664 576 l 620 363 l 615 363 b 417 447 590 445 505 447 b 104 223 241 447 141 398 b 324 -8 64 26 162 -8 b 566 91 407 -8 511 -5 l 570 91 l 544 0 m 526 1031 l 441 918 l 680 798 l 732 870 l 526 1031 "},"Ü":{"x_min":139.40625,"x_max":1154.578125,"ha":1047,"o":"m 958 1041 l 804 301 b 546 162 781 188 727 162 b 347 301 356 162 325 194 l 501 1041 l 305 1041 l 151 301 b 510 -8 90 9 271 -8 b 1000 301 758 -8 940 11 l 1154 1041 l 958 1041 m 574 1277 l 548 1155 l 683 1155 l 709 1277 l 574 1277 m 852 1277 l 826 1155 l 961 1155 l 987 1277 l 852 1277 "},"ó":{"x_min":109.875,"x_max":835.265625,"ha":808,"o":"m 550 737 b 136 363 252 737 194 647 b 394 -8 77 81 96 -8 b 808 363 693 -8 750 81 b 550 737 867 647 848 737 m 521 604 b 635 362 674 604 678 559 b 422 125 596 168 574 125 b 306 362 269 125 267 168 b 521 604 348 559 369 604 m 701 1031 l 427 870 l 449 798 l 737 918 l 701 1031 "},"√":{"x_min":270,"x_max":1204,"ha":1206,"o":"m 1204 1211 l 1082 1211 l 781 54 b 757 -55 773 15 764 -25 l 754 -55 b 723 48 746 -22 734 13 l 520 583 l 270 479 l 299 391 l 422 440 l 686 -218 l 824 -218 l 1204 1211 "}}}
